<?xml version="1.0" standalone="no"?><!DOCTYPE svg PUBLIC "-//W3C//DTD SVG 1.1//EN" "http://www.w3.org/Graphics/SVG/1.1/DTD/svg11.dtd"><svg class="icon" width="200px" height="200.00px" viewBox="0 0 1024 1024" version="1.1" xmlns="http://www.w3.org/2000/svg"><path fill="#333333" d="M355.84 769.536a15.36 15.36 0 0 1-15.36-15.36V670.72a15.36 15.36 0 0 1 30.72 0v83.456a15.36 15.36 0 0 1-15.36 15.36zM461.4656 769.536a15.36 15.36 0 0 1-15.36-15.36V670.72a15.36 15.36 0 0 1 30.72 0v83.456a15.36 15.36 0 0 1-15.36 15.36zM567.04 769.536a15.36 15.36 0 0 1-15.36-15.36V670.72a15.36 15.36 0 0 1 30.72 0v83.456a15.36 15.36 0 0 1-15.36 15.36zM672.6656 769.536a15.36 15.36 0 0 1-15.36-15.36V670.72a15.36 15.36 0 0 1 30.72 0v83.456a15.36 15.36 0 0 1-15.36 15.36zM355.84 368.64a15.36 15.36 0 0 1-15.36-15.36V269.824a15.36 15.36 0 0 1 30.72 0V353.28a15.36 15.36 0 0 1-15.36 15.36zM461.4656 368.64a15.36 15.36 0 0 1-15.36-15.36V269.824a15.36 15.36 0 1 1 30.72 0V353.28a15.36 15.36 0 0 1-15.36 15.36zM567.04 368.64a15.36 15.36 0 0 1-15.36-15.36V269.824a15.36 15.36 0 1 1 30.72 0V353.28a15.36 15.36 0 0 1-15.36 15.36zM672.6656 368.64a15.36 15.36 0 0 1-15.36-15.36V269.824a15.36 15.36 0 1 1 30.72 0V353.28a15.36 15.36 0 0 1-15.36 15.36zM492.0832 578.56a64.2048 64.2048 0 1 1 64.1536-64.1536A64.2048 64.2048 0 0 1 492.0832 578.56z m0-97.6384a33.4848 33.4848 0 1 0 33.4336 33.4848A33.4848 33.4848 0 0 0 492.0832 481.28zM382.5152 581.4784a15.36 15.36 0 0 1-15.36-15.36V464.128a15.36 15.36 0 0 1 30.72 0v101.9904a15.36 15.36 0 0 1-15.36 15.36zM618.0352 579.584a15.36 15.36 0 0 1-15.36-15.36V472.4736a15.36 15.36 0 0 1 30.72 0v91.7504a15.36 15.36 0 0 1-15.36 15.36z"  /><path fill="#333333" d="M654.08 481.28h-72.0896a15.36 15.36 0 1 1 0-30.72h72.0896a15.36 15.36 0 0 1 0 30.72zM815.9232 528.9472H721.92a15.36 15.36 0 0 1 0-30.72h94.0544a15.36 15.36 0 0 1 0 30.72zM815.9232 425.3184H721.92a15.36 15.36 0 0 1 0-30.72h94.0544a15.36 15.36 0 0 1 0 30.72zM815.9232 632.576H721.92a15.36 15.36 0 0 1 0-30.72h94.0544a15.36 15.36 0 0 1 0 30.72zM302.08 528.9472H208.0768a15.36 15.36 0 1 1 0-30.72H302.08a15.36 15.36 0 0 1 0 30.72zM302.08 425.3184H208.0768a15.36 15.36 0 0 1 0-30.72H302.08a15.36 15.36 0 0 1 0 30.72zM302.08 632.576H208.0768a15.36 15.36 0 0 1 0-30.72H302.08a15.36 15.36 0 1 1 0 30.72z"  /><path fill="#333333" d="M686.3872 685.056H338.7904a47.9232 47.9232 0 0 1-47.872-47.872V390.144a47.872 47.872 0 0 1 47.872-47.8208h347.5968a47.872 47.872 0 0 1 47.8208 47.8208v247.04a47.9232 47.9232 0 0 1-47.8208 47.872zM338.7904 373.0432a17.152 17.152 0 0 0-17.152 17.1008v247.04a17.2032 17.2032 0 0 0 17.152 17.152h347.5968a17.152 17.152 0 0 0 17.1008-17.152V390.144a17.152 17.152 0 0 0-17.1008-17.1008z"  /></svg>