<?xml version="1.0" standalone="no"?><!DOCTYPE svg PUBLIC "-//W3C//DTD SVG 1.1//EN" "http://www.w3.org/Graphics/SVG/1.1/DTD/svg11.dtd"><svg class="icon" width="200px" height="200.00px" viewBox="0 0 1024 1024" version="1.1" xmlns="http://www.w3.org/2000/svg"><path fill="#333333" d="M576 0l448 784-64 112H64l-64-112L448 0h128z m-154.752 301.248L152 768h263.376C469.888 697.6 496 633.536 496 576c0-43.52-8.928-76.976-35.872-148.4l-3.36-8.864-3.36-8.992c-16.032-42.88-26.48-76.32-32.16-108.48z m123.728-100.096C544.336 213.52 544 226.464 544 240c0 36.048 8.16 68.352 29.312 124.96l6.56 17.44C612.032 467.568 624 512.512 624 576c0 63.328-18.624 127.312-54.992 192H872z"  /></svg>