<?xml version="1.0" standalone="no"?><!DOCTYPE svg PUBLIC "-//W3C//DTD SVG 1.1//EN" "http://www.w3.org/Graphics/SVG/1.1/DTD/svg11.dtd"><svg class="icon" width="200px" height="200.00px" viewBox="0 0 1024 1024" version="1.1" xmlns="http://www.w3.org/2000/svg"><path d="M102.4 102.4m307.2 0l204.8 0q307.2 0 307.2 307.2l0 204.8q0 307.2-307.2 307.2l-204.8 0q-307.2 0-307.2-307.2l0-204.8q0-307.2 307.2-307.2Z" fill="#50CCCC" /><path d="M465.92 245.76a25.6 25.6 0 0 1 25.6 25.6v97.28h47.1296l0.39424-0.52224 75.65312-96.82944a25.6 25.6 0 1 1 40.3456 31.51872L603.60704 368.64H675.84c50.89792 0 92.16 41.26208 92.16 92.16v174.08c0 50.89792-41.26208 92.16-92.16 92.16H348.16c-50.89792 0-92.16-41.26208-92.16-92.16V460.8c0-50.89792 41.26208-92.16 92.16-92.16h92.16V271.36a25.6 25.6 0 0 1 25.6-25.6zM373.76 599.04a25.6 25.6 0 1 0 0 51.2 25.6 25.6 0 0 0 0-51.2z m281.6 0H450.56a25.6 25.6 0 0 0 0 51.2h204.8a25.6 25.6 0 1 0 0-51.2zM373.76 522.24a25.6 25.6 0 1 0 0 51.2 25.6 25.6 0 0 0 0-51.2z m281.6 0H450.56a25.6 25.6 0 0 0 0 51.2h204.8a25.6 25.6 0 1 0 0-51.2zM373.76 445.44a25.6 25.6 0 1 0 0 51.2 25.6 25.6 0 0 0 0-51.2z m281.6 0H450.56a25.6 25.6 0 0 0 0 51.2h204.8a25.6 25.6 0 1 0 0-51.2z" fill="#FFFFFF" fill-opacity=".8" /></svg>