<?xml version="1.0" standalone="no"?><!DOCTYPE svg PUBLIC "-//W3C//DTD SVG 1.1//EN" "http://www.w3.org/Graphics/SVG/1.1/DTD/svg11.dtd"><svg class="icon" width="200px" height="200.00px" viewBox="0 0 1024 1024" version="1.1" xmlns="http://www.w3.org/2000/svg"><path fill="#333333" d="M747.52 445.44c-32.768 0-61.44 22.528-68.608 53.248h-50.176c-8.192-57.344-57.344-102.4-117.76-102.4s-109.568 44.032-117.76 102.4h-50.176c-8.192-30.72-35.84-53.248-68.608-53.248-38.912 0-71.68 31.744-71.68 71.68 0 38.912 31.744 71.68 71.68 71.68 32.768 0 61.44-22.528 68.608-53.248h50.176c8.192 51.2 48.128 90.112 99.328 98.304v50.176c-30.72 8.192-53.248 35.84-53.248 68.608 0 38.912 31.744 71.68 71.68 71.68s71.68-31.744 71.68-71.68c0-32.768-22.528-61.44-53.248-68.608v-50.176c51.2-7.168 91.136-47.104 99.328-98.304h50.176c8.192 30.72 35.84 53.248 68.608 53.248 38.912 0 71.68-31.744 71.68-71.68s-31.744-71.68-71.68-71.68zM547.84 751.616c0 19.456-16.384 35.84-35.84 35.84s-35.84-16.384-35.84-35.84 16.384-35.84 35.84-35.84 35.84 16.384 35.84 35.84zM340.992 368.64c-8.192 8.192-8.192 20.48 0 28.672 8.192 8.192 20.48 8.192 28.672 0 75.776-75.776 198.656-75.776 274.432 0 4.096 4.096 9.216 6.144 14.336 6.144s10.24-2.048 14.336-6.144c8.192-8.192 8.192-20.48 0-28.672-91.136-92.16-240.64-92.16-331.776 0z m-52.224-36.864C409.6 211.968 604.16 211.968 724.992 331.776c4.096 4.096 9.216 6.144 14.336 6.144s10.24-2.048 14.336-6.144c8.192-8.192 8.192-20.48 0-28.672-136.192-136.192-357.376-136.192-493.568 0-8.192 8.192-8.192 20.48 0 28.672 8.192 8.192 20.48 8.192 28.672 0z" /></svg>