<?xml version="1.0" standalone="no"?><!DOCTYPE svg PUBLIC "-//W3C//DTD SVG 1.1//EN" "http://www.w3.org/Graphics/SVG/1.1/DTD/svg11.dtd"><svg class="icon" width="200px" height="200.00px" viewBox="0 0 1024 1024" version="1.1" xmlns="http://www.w3.org/2000/svg"><path fill="#333333" d="M745.915733 225.4848c23.3472 21.367467 24.917333 57.617067 3.584 80.964267l-3.857066 3.7888-4.164267 3.413333-3.857067 2.901333a17.066667 17.066667 0 0 0-3.4816 23.893334l1.365334 1.604266 1.570133 1.4336 4.983467 4.027734c25.6 20.855467 29.525333 58.538667 8.669866 84.206933l-3.1744 3.584-3.413333 3.345067-1.501867 1.297066a37.5808 37.5808 0 0 1-62.464-31.573333 17.066667 17.066667 0 0 1 34.030934 0.1024v3.072a3.447467 3.447467 0 0 0 4.539733 3.618133l1.194667-0.682666 1.467733-1.3312a25.7024 25.7024 0 0 0 1.877333-36.522667l-2.7648-2.628267-4.983466-4.027733a51.2 51.2 0 0 1-2.116267-77.653333l3.7888-3.140267 3.857067-2.8672a23.176533 23.176533 0 0 0 4.369066-32.904533l-2.56-2.730667-16.725333-15.36a46.660267 46.660267 0 0 1 2.218667-70.724267 17.066667 17.066667 0 0 1 23.6544 24.405334l-2.218667 2.1504a12.526933 12.526933 0 0 0-1.911467 17.6128l1.297067 1.365333 16.725333 15.36zM643.140267 271.428267a52.292267 52.292267 0 0 1-4.061867 80.4864 16.0768 16.0768 0 0 0-3.2768 22.528l1.297067 1.501866 1.467733 1.365334 1.092267 0.853333c23.3472 18.978133 26.897067 53.316267 7.918933 76.663467l-2.901333 3.2768-4.437334 4.1984a35.0208 35.0208 0 0 1-58.197333-29.457067 17.066667 17.066667 0 1 1 33.9968 3.208533c0 0.273067 0.034133 0.512 0.2048 0.682667l0.648533 0.341333 0.648534-0.273066 1.262933-1.1264a20.3776 20.3776 0 0 0 1.9456-28.4672l-2.628267-2.56-1.092266-0.887467a50.210133 50.210133 0 0 1-2.321067-75.946667l3.959467-3.2768a18.158933 18.158933 0 0 0 3.618133-25.531733l-2.184533-2.389333-14.677334-13.4144a42.973867 42.973867 0 0 1 2.048-65.160534 17.066667 17.066667 0 0 1 21.435734 26.589867 8.840533 8.840533 0 0 0-1.3312 12.424533l0.9216 0.955734 14.6432 13.4144zM716.8 546.133333m-34.133333 0a34.133333 34.133333 0 1 0 68.266666 0 34.133333 34.133333 0 1 0-68.266666 0ZM665.6 631.466667a34.133333 34.133333 0 0 1 3.9936 68.027733L665.6 699.733333h-68.266667a34.133333 34.133333 0 0 1-3.9936-68.027733L597.333333 631.466667h68.266667zM836.266667 580.266667c37.853867 0 72.8064 17.749333 95.232 47.342933A34.133333 34.133333 0 0 1 879.957333 672.085333l-2.798933-3.242666a51.2 51.2 0 1 0-4.096 66.56l3.3792-3.857067a34.133333 34.133333 0 0 1 53.418667 42.461867A119.466667 119.466667 0 1 1 836.266667 580.266667zM375.466667 68.266667a102.4 102.4 0 0 1 102.4 102.4v477.934933A170.666667 170.666667 0 1 1 273.066667 648.533333V170.666667a102.4 102.4 0 0 1 102.4-102.4z m0 512a34.133333 34.133333 0 0 0-34.133334 34.133333v68.266667c0 1.9456 0.170667 3.822933 0.477867 5.666133a102.4 102.4 0 1 0 67.2768 0l0.273067-1.706667L409.6 682.666667v-68.266667a34.133333 34.133333 0 0 0-34.133333-34.133333z m17.066666-102.4h-34.133333a17.066667 17.066667 0 1 0 0 34.133333h34.133333a17.066667 17.066667 0 1 0 0-34.133333z m0-102.4h-34.133333a17.066667 17.066667 0 0 0 0 34.133333h34.133333a17.066667 17.066667 0 0 0 0-34.133333z m0-102.4h-34.133333a17.066667 17.066667 0 0 0 0 34.133333h34.133333a17.066667 17.066667 0 0 0 0-34.133333z m0-102.4h-34.133333a17.066667 17.066667 0 0 0 0 34.133333h34.133333a17.066667 17.066667 0 0 0 0-34.133333z" /></svg>