<?xml version="1.0" standalone="no"?><!DOCTYPE svg PUBLIC "-//W3C//DTD SVG 1.1//EN" "http://www.w3.org/Graphics/SVG/1.1/DTD/svg11.dtd"><svg class="icon" width="200px" height="200.00px" viewBox="0 0 1024 1024" version="1.1" xmlns="http://www.w3.org/2000/svg"><path fill="#333333" d="M832 0c70.692571 0 128 57.307429 128 128v768c0 70.692571-57.307429 128-128 128H192C121.307429 1024 64 966.692571 64 896V128C64 57.307429 121.307429 0 192 0z m0 64H192l-7.462857 0.430857C152.705143 68.128 128 95.177143 128 128v768l0.430857 7.462857C132.128 935.294857 159.177143 960 192 960h640l7.462857-0.430857C871.294857 955.872 896 928.822857 896 896V128l-0.430857-7.462857C891.872 88.705143 864.822857 64 832 64zM448 736l5.752 0.515429C468.68 739.224 480 752.290286 480 768c0 17.673143-14.326857 32-32 32H320l-5.752-0.515429C299.32 796.776 288 783.709714 288 768c0-17.673143 14.326857-32 32-32h128z m256 0l5.752 0.515429C724.68 739.224 736 752.290286 736 768c0 17.673143-14.326857 32-32 32H576l-5.752-0.515429C555.32 796.776 544 783.709714 544 768c0-17.673143 14.326857-32 32-32h128z m0-544c35.346286 0 64 28.653714 64 64v256c0 35.346286-28.653714 64-64 64H320c-35.346286 0-64-28.653714-64-64V256c0-35.346286 28.653714-64 64-64z m0 64H320v256h384V256z"  /></svg>