<?xml version="1.0" standalone="no"?><!DOCTYPE svg PUBLIC "-//W3C//DTD SVG 1.1//EN" "http://www.w3.org/Graphics/SVG/1.1/DTD/svg11.dtd"><svg class="icon" width="200px" height="200.00px" viewBox="0 0 1024 1024" version="1.1" xmlns="http://www.w3.org/2000/svg"><path d="M944.432 649.12a25.6 25.6 0 0 0-8.496-21.104L534.88 73.632a24 24 0 0 0-19.344-9.952h-0.08a24 24 0 0 0-19.344 9.792L88.256 627.904a24 24 0 0 0-8.704 18.352 23.136 23.136 0 0 0 0 2.784v0.256c0 0.768 0 1.6 0.128 2.304a24 24 0 0 0 9.856 15.76l408.592 288.56a24 24 0 0 0 27.68 0l146.576-103.536a24 24 0 0 0-27.68-39.216l-132.8 93.776-357.28-252.336 254.096-84.592a107.392 107.392 0 0 1-4.8-31.68 109.104 109.104 0 0 1 1.6-17.84l-236.8 78.848 320.688-435.92v269.36a105.072 105.072 0 0 1 48 0.784V159.136l318.848 440.608-237.856-79.184a107.36 107.36 0 0 1 1.6 17.84 105.6 105.6 0 0 1-5.056 31.584l254.4 84.688-61.104 43.2a24 24 0 0 0 27.696 39.232l98.56-69.616a24 24 0 0 0 9.84-15.68c0.128-0.8 0.096-1.6 0.144-2.4z" fill="#666666" /><path d="M618.336 520.496A107.872 107.872 0 1 0 512 646.288a106.928 106.928 0 0 0 102.896-76.368 105.6 105.6 0 0 0 5.056-31.584 107.36 107.36 0 0 0-1.616-17.84zM512 598.288a59.952 59.952 0 1 1 59.952-59.952A60.016 60.016 0 0 1 512 598.288z" fill="#1771B9" /><path d="M702.976 757.552a22.704 22.704 0 0 0-3.024 3.52 19.472 19.472 0 0 0-2.08 4.16 21.792 21.792 0 0 0-1.92 9.28 22.256 22.256 0 0 0 1.92 9.12 22.656 22.656 0 0 0 5.104 7.84 23.888 23.888 0 0 0 16.976 6.88 23.36 23.36 0 0 0 9.28-1.76 22.864 22.864 0 0 0 7.68-5.12 26.016 26.016 0 0 0 5.28-7.84 25.408 25.408 0 0 0 1.76-9.12 24 24 0 0 0-7.04-16.96 24.784 24.784 0 0 0-33.936 0z" fill="#666666" /></svg>