<?xml version="1.0" standalone="no"?><!DOCTYPE svg PUBLIC "-//W3C//DTD SVG 1.1//EN" "http://www.w3.org/Graphics/SVG/1.1/DTD/svg11.dtd"><svg class="icon" width="200px" height="200.00px" viewBox="0 0 1024 1024" version="1.1" xmlns="http://www.w3.org/2000/svg"><path fill="#333333" d="M132.096 298.496c14.848 0 27.648-12.8 27.648-27.648V157.696v12.8s0-12.8 12.8-12.8h98.304c14.848 0 27.648-12.8 27.648-27.648S285.696 102.4 270.848 102.4H132.096c-14.848 0-27.648 12.8-27.648 27.648v138.752c0 16.896 12.8 29.696 27.648 29.696z m755.2-194.048h-138.752c-14.848 0-27.648 12.8-27.648 27.648s12.8 27.648 27.648 27.648h100.352c12.8 0 12.8 12.8 12.8 12.8v-14.848 113.152c0 14.848 12.8 27.648 27.648 27.648s27.648-12.8 27.648-27.648V132.096c-2.048-14.848-14.848-27.648-29.696-27.648zM270.848 861.696H173.056c-12.8 0-12.8-12.8-12.8-12.8v12.8-113.152c0-14.848-12.8-27.648-27.648-27.648s-27.648 12.8-27.648 27.648V896c2.048 0 2.048 2.048 2.048 2.048 4.096 10.752 12.8 16.896 25.6 16.896H271.36c14.848 0 27.648-12.8 27.648-27.648-0.512-14.848-13.312-25.6-28.16-25.6z m616.448-140.8c-14.848 0-27.648 12.8-27.648 27.648v113.152-12.8s0 12.8-12.8 12.8h-100.352c-14.848 0-27.648 12.8-27.648 27.648s12.8 27.648 27.648 27.648h138.752c14.848 0 27.648-12.8 27.648-27.648v-138.752c2.56-16.896-10.752-29.696-25.6-29.696z m-328.192-281.6L475.648 522.24l-8.704-8.704c-12.8-12.8-31.744-12.8-42.496 0-12.8 12.8-12.8 31.744 0 42.496l29.696 29.696c12.8 12.8 31.744 12.8 42.496 0L601.088 481.28c12.8-12.8 12.8-31.744 0-42.496-10.24-9.728-29.184-9.728-41.984 0.512z"  /><path fill="#333333" d="M733.696 648.704h61.952c14.848 0 25.6-12.8 25.6-25.6 0-14.848-12.8-25.6-25.6-25.6h-61.952v-57.344h61.952c14.848 0 25.6-12.8 25.6-25.6 0-14.848-12.8-25.6-25.6-25.6h-61.952V426.496h61.952c14.848 0 25.6-12.8 25.6-25.6 0-14.848-12.8-25.6-25.6-25.6h-61.952v-25.6c0-34.304-27.648-64-64-64h-25.6V223.744c0-14.848-12.8-25.6-25.6-25.6-14.848 0-25.6 12.8-25.6 25.6v61.952h-57.344V223.744c0-14.848-12.8-25.6-25.6-25.6-14.848 0-25.6 12.8-25.6 25.6v61.952H426.496V223.744c0-14.848-12.8-25.6-25.6-25.6-14.848 0-25.6 12.8-25.6 25.6v61.952h-25.6c-34.304 0-64 27.648-64 64v25.6H221.696c-16.896-2.048-29.696 8.704-29.696 23.552s12.8 25.6 25.6 25.6H281.6v57.344H217.6c-14.848 0-25.6 12.8-25.6 25.6 0 14.848 12.8 25.6 25.6 25.6H281.6v57.344H217.6c-14.848 0-25.6 12.8-25.6 25.6 0 14.848 12.8 25.6 25.6 25.6H281.6v25.6c0 34.304 27.648 64 64 64h25.6V793.6c0 14.848 12.8 25.6 25.6 25.6 14.848 0 25.6-12.8 25.6-25.6v-61.952h57.344V793.6c0 14.848 12.8 25.6 25.6 25.6 14.848 0 25.6-12.8 25.6-25.6v-61.952H588.8V793.6c0 14.848 12.8 25.6 25.6 25.6 14.848 0 25.6-12.8 25.6-25.6v-61.952h25.6c34.304 0 64-27.648 64-64v-19.456l4.096 0.512z m-40.448 23.04c0 12.8-10.752 23.552-23.552 23.552H345.6c-12.8 0-23.552-10.752-23.552-23.552V347.648c0-12.8 10.752-23.552 23.552-23.552h324.096c12.8 0 23.552 10.752 23.552 23.552v324.096z"  /><path fill="#333333" d="M623.104 352.256h-230.4c-23.552 0-42.496 19.456-42.496 42.496v232.448c0 23.552 19.456 42.496 42.496 42.496h232.448c23.552 0 42.496-19.456 42.496-42.496V394.752c-2.048-23.552-20.992-42.496-44.544-42.496z m2.048 274.944l-232.448 2.048s-2.048 0-2.048-2.048V394.752s0-2.048 2.048-2.048h232.448s2.048 0 2.048 2.048v232.448h-2.048z"  /></svg>