<?xml version="1.0" standalone="no"?><!DOCTYPE svg PUBLIC "-//W3C//DTD SVG 1.1//EN" "http://www.w3.org/Graphics/SVG/1.1/DTD/svg11.dtd"><svg class="icon" width="200px" height="200.00px" viewBox="0 0 1024 1024" version="1.1" xmlns="http://www.w3.org/2000/svg"><path d="M697.056 625.552a109.232 109.232 0 1 0 138.32 68.8 108.464 108.464 0 0 0-138.32-68.8z m54.208 161.6a61.232 61.232 0 1 1 38.592-77.552 60.944 60.944 0 0 1-38.592 77.584z" fill="#1771B9" /><path d="M952.352 705.632a40.928 40.928 0 0 0-40.736-36.8h-11.584q-2.88-8.096-6.544-15.84l8.176-8.208a40.864 40.864 0 0 0 2.992-54.4 219.408 219.408 0 0 0-33.872-33.856 40.944 40.944 0 0 0-54.544 3.024l-8.08 8.08q-7.696-3.632-15.728-6.512v-11.696a40.736 40.736 0 0 0-36.448-40.688 230.912 230.912 0 0 0-48 0 40.704 40.704 0 0 0-36.384 40.656v11.52a171.648 171.648 0 0 0-16 6.592l-8.176-8.16a40.912 40.912 0 0 0-54.512-3.04 221.296 221.296 0 0 0-33.792 33.696 40.864 40.864 0 0 0 2.944 54.656l8.096 8.112c-2.512 5.264-4.8 10.656-6.72 16.128h-11.568a40.944 40.944 0 0 0-40.736 36.8 228.336 228.336 0 0 0 0 47.376 40.72 40.72 0 0 0 40.672 36.368h11.584q2.976 8.272 6.72 16.224l-8 8a40.832 40.832 0 0 0-2.976 54.688 222.4 222.4 0 0 0 33.76 33.6 40.896 40.896 0 0 0 54.528-3.04l8.128-8.112a168.368 168.368 0 0 0 16 6.608v11.456a40.72 40.72 0 0 0 36.352 40.656 220.8 220.8 0 0 0 23.792 1.264 228.352 228.352 0 0 0 24.224-1.28 40.72 40.72 0 0 0 36.416-40.672v-11.584a167.04 167.04 0 0 0 15.808-6.576l8 8a40.864 40.864 0 0 0 54.656 3.088 219.2 219.2 0 0 0 33.824-33.888 40.928 40.928 0 0 0-3.056-54.496l-8.128-8.112q3.648-7.792 6.56-15.92h11.6a40.72 40.72 0 0 0 40.672-36.384 228.208 228.208 0 0 0 0-47.36z m-47.184 35.744h-22.992a24 24 0 0 0-23.328 18.4 129.6 129.6 0 0 1-15.408 37.344 24 24 0 0 0 3.488 29.504l16.192 16.176a169.84 169.84 0 0 1-17.44 17.488l-16-16.144a24 24 0 0 0-29.664-3.488 127.2 127.2 0 0 1-37.152 15.44 24 24 0 0 0-18.4 23.328v22.96a177.904 177.904 0 0 1-24.784 0v-22.88a24 24 0 0 0-18.576-23.376 126.784 126.784 0 0 1-37.328-15.408 24 24 0 0 0-29.44 3.552l-16.16 16.176a172.624 172.624 0 0 1-17.472-17.424l16.144-16.08a24 24 0 0 0 3.504-29.568 128.672 128.672 0 0 1-15.568-37.584 24 24 0 0 0-23.344-18.432h-22.976a182.144 182.144 0 0 1 0-24.592h22.976a24 24 0 0 0 23.344-18.416 128.256 128.256 0 0 1 15.568-37.488 24 24 0 0 0-3.472-29.536l-16.192-16.176a171.504 171.504 0 0 1 17.488-17.456l16.256 16.288a24 24 0 0 0 29.632 3.408 124.624 124.624 0 0 1 37.104-15.312 24 24 0 0 0 18.512-23.36v-22.96a188.08 188.08 0 0 1 24.784 0v23.056a24 24 0 0 0 18.4 23.328 129.6 129.6 0 0 1 37.152 15.408 24 24 0 0 0 29.504-3.504l16.144-16.144a170.4 170.4 0 0 1 17.504 17.472l-16.224 16.256a24 24 0 0 0-3.472 29.488 128.72 128.72 0 0 1 15.408 37.248 24 24 0 0 0 23.328 18.384h22.976a185.504 185.504 0 0 1-0.016 24.624z" fill="#1771B9" /><path d="M528.928 509.408l67.072 22.4a23.68 23.68 0 0 0 7.584 1.232 24 24 0 0 0 7.6-46.768l-78.4-26.08a95.376 95.376 0 0 1 1.744 17.888 93.568 93.568 0 0 1-5.6 31.328z" fill="#666666" /><path d="M416.928 385.936a94.896 94.896 0 0 0 22.72 187.008 96 96 0 0 0 94.944-94.928 95.152 95.152 0 0 0-69.664-91.424 92.032 92.032 0 0 0-48-0.656z m69.664 92.08a46.944 46.944 0 1 1-46.944-46.944 47.04 47.04 0 0 1 46.88 46.944z" fill="#1771B9" /><path d="M477.152 783.52l-22.24 12.208L145.872 577.472l204.304-68a92.944 92.944 0 0 1-3.728-49.344L159.584 522.336l257.344-349.792v213.424a92.032 92.032 0 0 1 48 0.656v-217.6l227.824 314.944a24 24 0 0 0 38.896-28.128L462 83.04a24 24 0 0 0-19.36-9.936 25.36 25.36 0 0 0-19.424 9.776L78.832 550.992a24 24 0 0 0-8.368 17.936 21.04 21.04 0 0 0 0 2.656v0.624c0 0.688 0 1.36 0.112 2.032a24 24 0 0 0 9.84 15.76l358.96 253.504a24 24 0 0 0 25.392 1.424l35.376-19.424a24 24 0 1 0-23.088-42.064z" fill="#666666" /></svg>