<?xml version="1.0" standalone="no"?><!DOCTYPE svg PUBLIC "-//W3C//DTD SVG 1.1//EN" "http://www.w3.org/Graphics/SVG/1.1/DTD/svg11.dtd"><svg class="icon" width="200px" height="200.00px" viewBox="0 0 1024 1024" version="1.1" xmlns="http://www.w3.org/2000/svg"><path fill="#333333" d="M161.536 712.256a24 24 0 0 1-13.984-43.488l462.976-331.84 239.904 238.304a24 24 0 1 1-33.824 34.08l-211.104-209.696-430.016 308.16a23.808 23.808 0 0 1-13.952 4.48zM207.456 793.824c11.2 17.024 16.768 40.512 16.768 70.432s-5.6 53.44-16.768 70.432c-11.168 17.056-26.976 25.568-47.456 25.568-20.672 0-36.608-8.512-47.872-25.568-11.296-16.992-16.864-40.512-16.864-70.432s5.6-53.408 16.864-70.432c11.264-17.088 27.2-25.568 47.872-25.568 20.48 0 36.288 8.48 47.456 25.568z m-16.224 92.352a187.456 187.456 0 0 0 0-44 149.024 149.024 0 0 0-4.512-22.304c-2.176-7.744-5.536-14.016-10.08-18.72s-10.112-7.104-16.64-7.104a22.592 22.592 0 0 0-16.768 7.104 43.2 43.2 0 0 0-10.304 18.72c-2.208 7.744-3.808 15.2-4.672 22.304s-1.28 14.496-1.28 22.048c0 7.392 0.448 14.688 1.28 21.952 0.832 7.232 2.432 14.688 4.672 22.304 2.24 7.68 5.696 13.824 10.304 18.432 4.64 4.672 10.208 7.04 16.768 7.04a22.4 22.4 0 0 0 16.64-7.008c4.576-4.64 7.904-10.816 10.08-18.56 2.112-7.744 3.648-15.136 4.512-22.208zM160 961.856c-21.088 0-37.664-8.832-49.216-26.24-11.36-17.152-17.12-41.152-17.12-71.328 0-30.144 5.76-54.144 17.12-71.328 11.552-17.408 28.128-26.24 49.216-26.24 20.928 0 37.344 8.832 48.8 26.272 11.328 17.216 17.024 41.216 17.024 71.328 0 30.112-5.728 54.112-17.024 71.328-11.456 17.344-27.872 26.208-48.8 26.208z m0-192c-20.256 0-35.456 8.128-46.528 24.832-11.04 16.64-16.64 40.064-16.64 69.568 0 29.536 5.6 52.928 16.64 69.568 11.072 16.704 26.272 24.832 46.528 24.832 19.776 0 35.328-8.352 46.112-24.832 10.976-16.672 16.544-40.064 16.544-69.568 0-29.472-5.568-52.864-16.544-69.568-10.784-16.512-26.336-24.832-46.112-24.832z m0 165.664a24.64 24.64 0 0 1-17.92-7.424 44.352 44.352 0 0 1-10.72-19.136 141.088 141.088 0 0 1-4.704-22.592 197.92 197.92 0 0 1 0-44.352c0.832-7.04 2.368-14.432 4.704-22.56a45.44 45.44 0 0 1 10.688-19.392c4.992-5.056 11.008-7.584 17.952-7.584s12.928 2.528 17.792 7.584c4.672 4.864 8.224 11.36 10.464 19.36a155.072 155.072 0 0 1 5.856 44.8c0 7.488-0.448 14.976-1.28 22.112a147.104 147.104 0 0 1-4.576 22.432c-2.24 8-5.792 14.496-10.464 19.264a24.096 24.096 0 0 1-17.792 7.488z m0-139.872a20.8 20.8 0 0 0-15.616 6.624 42.272 42.272 0 0 0-9.952 18.016c-2.272 8-3.776 15.2-4.608 22.048a189.664 189.664 0 0 0 0 43.648c0.8 6.88 2.336 14.304 4.608 22.048 2.144 7.36 5.504 13.312 9.92 17.76 4.384 4.384 9.536 6.56 15.648 6.56s11.2-2.144 15.456-6.528c4.352-4.384 7.584-10.368 9.728-17.888a157.664 157.664 0 0 0 5.728-43.68c0-7.392-0.448-14.752-1.28-21.888a147.424 147.424 0 0 0-4.448-22.08 41.92 41.92 0 0 0-9.728-18.048 20.544 20.544 0 0 0-15.456-6.592zM768 864.256v-192h74.848c16.256 0 30.144 4 41.632 11.936s17.216 20.064 17.216 36.32c0 10.496-2.976 19.36-8.96 26.592-5.952 7.232-14.08 12.416-24.384 15.456v0.544c12.48 1.632 22.496 6.432 30.08 14.368 7.584 7.968 11.36 18.24 11.36 30.912 0 9.952-2.016 18.688-6.08 26.176s-9.632 13.312-16.672 17.504c-7.04 4.128-14.72 7.232-23.04 9.184-8.32 1.984-17.28 3.008-26.848 3.008H768z m34.144-163.808v49.952h30.4c11.36 0 20.064-2.272 25.984-6.816 5.984-4.512 8.928-10.944 8.928-19.264 0-8.512-3.04-14.592-9.184-18.304-6.144-3.68-15.712-5.568-28.736-5.568h-27.392z m0 79.168v55.872h30.656c28.576 0 42.848-9.568 42.848-28.736 0-9.76-3.328-16.704-10.016-20.864s-17.184-6.24-31.424-6.24h-32.064zM510.656 288.256l83.52-192h29.568l82.688 192h-39.072l-17.888-43.936h-83.264l-17.344 43.936h-38.208zM577.92 215.04h59.648L608 136.928l-30.08 78.112z" /></svg>