<?xml version="1.0" standalone="no"?><!DOCTYPE svg PUBLIC "-//W3C//DTD SVG 1.1//EN" "http://www.w3.org/Graphics/SVG/1.1/DTD/svg11.dtd"><svg class="icon" width="200px" height="176.70px" viewBox="0 0 1159 1024" version="1.1" xmlns="http://www.w3.org/2000/svg"><path fill="#333333" d="M1147.539194 864.749309a112.730551 112.730551 0 0 0-104.540724-69.854401 111.767042 111.767042 0 0 0-74.671946 28.905269l-121.883886-70.81791V478.863963L609.419429 342.045688V224.497592a113.69406 113.69406 0 1 0-70.336155-4.817545v121.883886L303.505328 478.863963v266.891987L192.701796 811.756315a111.767042 111.767042 0 0 0-138.745293-13.97088 112.730551 112.730551 0 0 0 79.489491 206.672676 112.730551 112.730551 0 0 0 91.051598-111.285287 100.204934 100.204934 0 0 0 0-16.861407l111.285287-64.073347 240.877245 140.190556 235.096191-136.336521 121.883886 70.336156a110.321778 110.321778 0 0 0-2.890527 23.60597 113.212305 113.212305 0 1 0 217.271275-43.839659z m-407.082543-364.206394l-164.760036 96.350898-166.205299-96.350898 164.760036-96.350898z m34.204568 61.18282v192.701796l-165.24179 96.350898v-192.701796z" /></svg>