<?xml version="1.0" standalone="no"?><!DOCTYPE svg PUBLIC "-//W3C//DTD SVG 1.1//EN" "http://www.w3.org/Graphics/SVG/1.1/DTD/svg11.dtd"><svg class="icon" width="200px" height="200.00px" viewBox="0 0 1024 1024" version="1.1" xmlns="http://www.w3.org/2000/svg"><path fill="#333333" d="M905.898667 761.514667c-23.409778 0-45.824 9.585778-62.122667 26.481777l-112.981333-65.479111v-233.187555l-200.362667-116.224V261.802667a88.832 88.832 0 0 0 72.419556-92.472889 88.746667 88.746667 0 0 0-82.261334-83.768889 88.576 88.576 0 0 0-92.928 71.623111 88.974222 88.974222 0 0 0 59.107556 101.603556v113.550222l-200.362667 116.992v229.774222-2.645333l-105.443555 61.326222a87.04 87.04 0 0 0-110.705778-16.412445 88.035556 88.035556 0 0 0-35.953778 106.524445 87.267556 87.267556 0 0 0 97.792 54.698667 87.722667 87.722667 0 0 0 71.082667-86.897778 75.377778 75.377778 0 0 0-2.247111-18.545778l103.566222-59.818667 205.596444 119.239111 199.992889-115.825777 112.952889 65.507555a83.456 83.456 0 0 0-3.754667 23.836445c0 35.868444 21.504 68.181333 54.499556 81.863111a87.722667 87.722667 0 0 0 96.056889-19.370667 88.888889 88.888889 0 0 0 18.887111-96.654222 88.120889 88.120889 0 0 0-81.692445-54.414222h-1.137777z m-553.585778-258.190223l156.273778-90.851555 157.44 90.851555-156.302223 90.851556-157.411555-90.851556z m334.791111 219.960889l-156.672 90.851556v-181.703111l156.672-91.249778v182.101333z" /></svg>