<?xml version="1.0" standalone="no"?><!DOCTYPE svg PUBLIC "-//W3C//DTD SVG 1.1//EN" "http://www.w3.org/Graphics/SVG/1.1/DTD/svg11.dtd"><svg class="icon" width="200px" height="192.12px" viewBox="0 0 1066 1024" version="1.1" xmlns="http://www.w3.org/2000/svg"><path fill="#333333" d="M655.50856 261.369368a20.108601 20.108601 0 1 0 0-40.222508 20.108601 20.108601 0 0 0 0 40.222508M610.044021 226.394197a25.355938 25.355938 0 1 0 0-50.711876 25.355938 25.355938 0 0 0 0 50.711876M628.794363 292.121202a23.997679 23.997679 0 1 0 0 47.995358 23.997679 23.997679 0 0 0 0-47.995358M546.646218 193.965762a27.902674 27.902674 0 1 0 0-55.805347 27.902674 27.902674 0 0 0 0 55.805347M537.026984 281.483275a27.907979 27.907979 0 1 0 55.815959 0 27.907979 27.907979 0 0 0-55.815959 0M616.808788 436.176249a27.907979 27.907979 0 1 0 0-55.815959 27.907979 27.907979 0 0 0 0 55.815959M465.325762 175.677016a32.354155 32.354155 0 1 0 0-64.703006 32.354155 32.354155 0 0 0 0 64.703006M566.754819 385.533347a32.34885 32.34885 0 1 0-64.6977 0 32.34885 32.34885 0 1 0 64.703005 0M450.90487 257.947192a32.34885 32.34885 0 1 0 64.703006 0 32.354155 32.354155 0 1 0-64.703006 0M365.647585 175.677016a37.527212 37.527212 0 1 0-0.010611-75.054425 37.527212 37.527212 0 0 0 0.010611 75.054425M345.613264 252.264788a37.527212 37.527212 0 1 0 75.049119-0.005306 37.527212 37.527212 0 0 0-75.049119 0M435.873824 342.838383a37.527212 37.527212 0 1 0 0 75.04912 37.527212 37.527212 0 0 0 0-75.04912M249.351959 201.032953a43.278591 43.278591 0 0 0 43.27859-43.283896 43.278591 43.278591 0 0 0-43.27859-43.278591 43.278591 43.278591 0 1 0 0 86.562487M224.431088 272.84029a43.283896 43.283896 0 1 0 43.278591-43.283896 43.283896 43.283896 0 0 0-43.278591 43.283896M276.458777 401.376166a43.283896 43.283896 0 1 0 86.567793 0 43.283896 43.283896 0 0 0-86.567793 0M140.489617 379.049782c28.475689 0 51.560788-23.079793 51.560787-51.560787 0-28.475689-23.085098-51.560788-51.560787-51.560788s-51.560788 23.085098-51.560788 51.560788 23.079793 51.560788 51.560788 51.560787M192.050404 402.686674c-28.480995 0-51.566093 23.085098-51.566093 51.560787s23.085098 51.571399 51.560787 51.571399 51.571399-23.09571 51.571399-51.571399c0-28.475689-23.090404-51.560788-51.571399-51.560787M61.758342 490.676394C28.279378 490.676394 1.13542 517.820352 1.13542 551.304622c0 33.489575 27.143959 60.633534 60.633533 60.633533 33.489575 0 60.633534-27.143959 60.633534-60.633533 0-33.478964-27.143959-60.628228-60.633534-60.628228M294.943834 553.03428a20.108601 20.108601 0 1 0-34.948642 19.901679 20.108601 20.108601 0 0 0 34.948642-19.901679M252.47171 600.371731a25.361244 25.361244 0 1 0 25.095958 44.063834 25.361244 25.361244 0 0 0-25.095958-44.063834M367.616 569.996601a23.997679 23.997679 0 1 0-23.743005-41.702798 23.997679 23.997679 0 0 0 23.743005 41.702798M279.822591 719.044311a27.902674 27.902674 0 1 0-27.626778-48.494093 27.907979 27.907979 0 0 0 27.621472 48.494093M333.001617 635.590964a27.907979 27.907979 0 1 0 48.494093-27.621472 27.907979 27.907979 0 0 0-48.494093 27.621472M427.925886 489.700145a27.902674 27.902674 0 1 0 27.626777 48.494093 27.902674 27.902674 0 1 0-27.626777-48.494093M314.617368 760.699358a32.34885 32.34885 0 1 0-56.219192 32.025202 32.34885 32.34885 0 0 0 56.219192-32.025202M478.786321 624.915896a32.364767 32.364767 0 0 0-32.025202-56.224497 32.359461 32.359461 0 0 0 32.030508 56.224497M393.242528 732.515482a32.354155 32.354155 0 1 0-32.035813-56.224498 32.354155 32.354155 0 0 0 32.035813 56.224498M363.955067 847.314902a37.527212 37.527212 0 1 0-65.212352 37.145202 37.527212 37.527212 0 0 0 65.207047-37.145202M440.420808 826.813679a37.527212 37.527212 0 1 0-37.150507-65.212353 37.527212 37.527212 0 0 0 37.150507 65.212353M525.625036 717.585244a37.527212 37.527212 0 1 0-37.145202-65.207047 37.527212 37.527212 0 0 0 37.139897 65.207047M384.519959 919.62628a43.283896 43.283896 0 1 0 42.854134 75.218901 43.283896 43.283896 0 0 0-42.854134-75.218901M475.433119 846.704746a43.283896 43.283896 0 1 0 42.848829 75.224207 43.283896 43.283896 0 0 0-42.848829-75.224207M604.213057 813.098446a43.283896 43.283896 0 1 0-42.854135-75.224208 43.283896 43.283896 0 0 0 42.854135 75.224208M581.791171 923.011316c-24.740477 14.091938-33.37285 45.581264-19.286218 70.321741 14.097244 24.745782 45.581264 33.378155 70.327047 19.280912 24.740477-14.091938 33.37285-45.575959 19.286218-70.321741-14.097244-24.745782-45.58657-33.37285-70.327047-19.280912M666.417078 815.470093c-24.745782 14.091938-33.378155 45.575959-19.286218 70.321741 14.097244 24.745782 45.575959 33.37285 70.327047 19.280912 24.740477-14.091938 33.37285-45.581264 19.280912-70.321741-14.091938-24.745782-45.581264-33.378155-70.321741-19.280912M810.748021 872.755731c-29.096456 16.575005-39.246259 53.59287-22.671254 82.689326 16.575005 29.096456 53.587565 39.246259 82.694632 22.671254 29.09115-16.575005 39.246259-53.598176 22.671254-82.689327-16.575005-29.09115-53.603482-39.251565-82.694632-22.671253M754.560663 714.566301a20.108601 20.108601 0 1 0-20.002487 34.895585 20.108601 20.108601 0 0 0 20.002487-34.895585M789.456249 734.568788a25.361244 25.361244 0 1 0 25.217989-44.005472 25.361244 25.361244 0 0 0-25.217989 44.005472M704.830342 650.781181a23.997679 23.997679 0 1 0-23.875648 41.63913 23.997679 23.997679 0 0 0 23.875648-41.633824M850.057948 699.169161a27.907979 27.907979 0 1 0 27.75942-48.414508 27.907979 27.907979 0 0 0-27.75942 48.414508M768.583627 609.216332a27.902674 27.902674 0 1 0-27.748808 48.419813 27.902674 27.902674 0 1 0 27.748808-48.419813M605.030135 639.602073a27.902674 27.902674 0 1 0 27.748808-48.419814 27.902674 27.902674 0 1 0-27.748808 48.419814M940.185865 587.643358a32.34885 32.34885 0 1 0-32.173761 56.1343 32.34885 32.34885 0 0 0 32.173761-56.1343M651.539896 539.112124a32.34885 32.34885 0 0 0 11.985576 44.154031 32.34885 32.34885 0 1 0 32.173761-56.1343 32.354155 32.354155 0 0 0-44.159337 11.980269M799.653803 602.334839a32.354155 32.354155 0 1 0 32.173762-56.139606 32.354155 32.354155 0 0 0-32.173762 56.134301M996.813596 499.245098a37.516601 37.516601 0 0 0-51.210612 13.895627 37.527212 37.527212 0 1 0 51.210612-13.895627M851.798218 522.781181a37.527212 37.527212 0 1 0 37.32029-65.111544 37.527212 37.527212 0 0 0-37.32029 65.111544M714.438964 504.837306a37.516601 37.516601 0 0 0 51.205305-13.895627 37.527212 37.527212 0 1 0-51.210611 13.895627M1040.500725 383.602073a43.283896 43.283896 0 1 0-43.039834 75.107481 43.283896 43.283896 0 0 0 43.04514-75.102176M888.476518 417.40999a43.289202 43.289202 0 1 0 43.050446-75.112788 43.289202 43.289202 0 0 0-43.050446 75.112788M810.164394 382.599295a43.283896 43.283896 0 1 0-75.102176-43.04514 43.283896 43.283896 0 0 0 75.102176 43.04514M900.218031 287.038342c24.703337 14.155606 56.213886 5.608124 70.374798-19.100518 14.166218-24.703337 5.608124-56.20858-19.100518-70.369492-24.703337-14.166218-56.213886-5.61343-70.374798 19.089906-14.160912 24.708642-5.608124 56.213886 19.100518 70.374798M815.883938 179.268974c-24.708642-14.166218-56.219192-5.61343-70.380104 19.095213-14.166218 24.703337-5.608124 56.20858 19.095213 70.369492 24.708642 14.166218 56.219192 5.61343 70.380103-19.089907 14.160912-24.708642 5.608124-56.213886-19.100518-70.374798M740.670342 115.303461c29.05401 16.659896 66.10371 6.60029 82.752995-22.45372s6.60029-66.098404-22.45372-82.752995c-29.048705-16.649285-66.109016-6.60029-82.74769 22.45372-16.659896 29.048705-6.605596 66.109016 22.443109 82.752995"  /></svg>