<?xml version="1.0" standalone="no"?><!DOCTYPE svg PUBLIC "-//W3C//DTD SVG 1.1//EN" "http://www.w3.org/Graphics/SVG/1.1/DTD/svg11.dtd"><svg class="icon" width="200px" height="200.00px" viewBox="0 0 1024 1024" version="1.1" xmlns="http://www.w3.org/2000/svg"><path fill="#333333" d="M512 597.333333a85.333333 85.333333 0 1 0 0-170.666666 85.333333 85.333333 0 0 0 0 170.666666z m0 85.333334a170.666667 170.666667 0 1 0 0-341.333334 170.666667 170.666667 0 0 0 0 341.333334zM853.333333 362.666667a42.666667 42.666667 0 1 0 0-85.333334 42.666667 42.666667 0 0 0 0 85.333334z m0 85.333333a128 128 0 1 0 0-256 128 128 0 0 0 0 256zM853.333333 746.666667a42.666667 42.666667 0 1 0 0-85.333334 42.666667 42.666667 0 0 0 0 85.333334z m0 85.333333a128 128 0 1 0 0-256 128 128 0 0 0 0 256zM170.666667 746.666667a42.666667 42.666667 0 1 0 0-85.333334 42.666667 42.666667 0 0 0 0 85.333334z m0 85.333333a128 128 0 1 0 0-256 128 128 0 0 0 0 256zM170.666667 362.666667a42.666667 42.666667 0 1 0 0-85.333334 42.666667 42.666667 0 0 0 0 85.333334z m0 85.333333A128 128 0 1 0 170.666667 192a128 128 0 0 0 0 256zM512 170.666667a42.666667 42.666667 0 1 0 0-85.333334 42.666667 42.666667 0 0 0 0 85.333334z m0 85.333333a128 128 0 1 0 0-256 128 128 0 0 0 0 256zM512 938.666667a42.666667 42.666667 0 1 0 0-85.333334 42.666667 42.666667 0 0 0 0 85.333334z m0 85.333333a128 128 0 1 0 0-256 128 128 0 0 0 0 256z"  /><path fill="#333333" d="M469.333333 597.333333h85.333334v234.666667h-85.333334V597.333333z"  /><path fill="#333333" d="M533.333333 618.666667h-42.666666v192h42.666666v-192z m-64-21.333334v234.666667h85.333334V597.333333h-85.333334z"  /><path fill="#333333" d="M469.333333 192h85.333334v234.666667h-85.333334V192z"  /><path fill="#333333" d="M533.333333 213.333333h-42.666666v192h42.666666v-192z m-64-21.333333v234.666667h85.333334V192h-85.333334z"  /><path fill="#333333" d="M828.928 645.717333l-42.666667 73.898667-207.808-119.978667 42.666667-73.898666 207.808 119.978666z"  /><path fill="#333333" d="M778.453333 690.474667l21.333334-36.949334-170.88-98.645333-21.333334 36.949333 170.88 98.645334z m50.474667-44.757334l-207.808-119.978666-42.666667 73.898666 207.808 119.978667 42.666667-73.898667z"  /><path fill="#333333" d="M451.968 428.074667l-42.666667 73.92-214.229333-123.712 42.666667-73.898667 214.229333 123.690667z"  /><path fill="#333333" d="M401.493333 472.853333l21.333334-36.970666-177.28-102.357334-21.333334 36.949334 177.28 102.378666z m50.474667-44.778666l-214.229333-123.690667-42.666667 73.898667 214.229333 123.712 42.666667-73.92z"  /><path fill="#333333" d="M786.261333 304.384l42.666667 73.898667-211.434667 122.090666-42.666666-73.898666 211.434666-122.090667z"  /><path fill="#333333" d="M799.786667 370.474667l-21.333334-36.949334-174.506666 100.757334 21.333333 36.949333 174.506667-100.757333z m-13.525334-66.090667l-211.434666 122.090667 42.666666 73.898666 211.434667-122.090666-42.666667-73.898667z"  /><path fill="#333333" d="M396.842667 529.216l42.666666 73.898667-201.792 116.501333-42.666666-73.898667 201.813333-116.48z"  /><path fill="#333333" d="M410.368 595.306667l-21.333333-36.949334-164.842667 95.168 21.333333 36.949334 164.842667-95.146667z m-13.525333-66.090667l-201.792 116.501333 42.666666 73.898667 201.813334-116.48-42.666667-73.92z"  /></svg>