<?xml version="1.0" standalone="no"?><!DOCTYPE svg PUBLIC "-//W3C//DTD SVG 1.1//EN" "http://www.w3.org/Graphics/SVG/1.1/DTD/svg11.dtd"><svg class="icon" width="200px" height="200.00px" viewBox="0 0 1024 1024" version="1.1" xmlns="http://www.w3.org/2000/svg"><path fill="#333333" d="M460.234 242.242c0-34.83-5.696-58.024-17.09-69.58-11.393-11.556-34.83-17.822-70.312-18.799v-20.02h277.344v20.02c-35.482 0.977-58.92 7.243-70.313 18.8-11.393 11.555-17.09 34.748-17.09 69.58v442.87c0 34.506 5.697 57.699 17.09 69.58 11.394 11.882 34.83 18.31 70.313 19.287V794H372.832v-20.02c35.156-0.325 58.512-6.103 70.068-17.334 11.556-11.23 17.334-35.074 17.334-71.533v-442.87z"  /></svg>