<?xml version="1.0" standalone="no"?><!DOCTYPE svg PUBLIC "-//W3C//DTD SVG 1.1//EN" "http://www.w3.org/Graphics/SVG/1.1/DTD/svg11.dtd"><svg class="icon" width="200px" height="200.00px" viewBox="0 0 1024 1024" version="1.1" xmlns="http://www.w3.org/2000/svg"><path fill="#333333" d="M132.266667 298.666667c14.933333 0 27.733333-12.8 27.733333-27.733334V157.866667 170.666667s0-12.8 12.8-12.8h98.133333c14.933333 0 27.733333-12.8 27.733334-27.733334s-12.8-27.733333-27.733334-27.733333H132.266667c-14.933333 0-27.733333 12.8-27.733334 27.733333v138.666667c0 17.066667 12.8 29.866667 27.733334 29.866667zM887.466667 104.533333h-138.666667c-14.933333 0-27.733333 12.8-27.733333 27.733334s12.8 27.733333 27.733333 27.733333h100.266667c12.8 0 12.8 12.8 12.8 12.8v-14.933333 113.066666c0 14.933333 12.8 27.733333 27.733333 27.733334s27.733333-12.8 27.733333-27.733334V132.266667c-2.133333-14.933333-14.933333-27.733333-29.866666-27.733334zM270.933333 861.866667H172.8c-12.8 0-12.8-12.8-12.8-12.8v12.8-113.066667c0-14.933333-12.8-27.733333-27.733333-27.733333s-27.733333 12.8-27.733334 27.733333V896c2.133333 0 2.133333 2.133333 2.133334 2.133333 4.266667 10.666667 12.8 17.066667 25.6 17.066667h138.666666c14.933333 0 27.733333-12.8 27.733334-27.733333 0-14.933333-12.8-25.6-27.733334-25.6zM887.466667 721.066667c-14.933333 0-27.733333 12.8-27.733334 27.733333v113.066667-12.8s0 12.8-12.8 12.8H746.666667c-14.933333 0-27.733333 12.8-27.733334 27.733333S731.733333 917.333333 746.666667 917.333333h138.666666c14.933333 0 27.733333-12.8 27.733334-27.733333v-138.666667c2.133333-17.066667-10.666667-29.866667-25.6-29.866666zM558.933333 439.466667l-83.2 83.2-8.533333-8.533334c-12.8-12.8-32-12.8-42.666667 0-12.8 12.8-12.8 32 0 42.666667l29.866667 29.866667c12.8 12.8 32 12.8 42.666667 0l104.533333-104.533334c12.8-12.8 12.8-32 0-42.666666-10.666667-10.666667-29.866667-10.666667-42.666667 0z"  /><path fill="#333333" d="M733.866667 648.533333h61.866666c14.933333 0 25.6-12.8 25.6-25.6 0-14.933333-12.8-25.6-25.6-25.6h-61.866666v-57.6h61.866666c14.933333 0 25.6-12.8 25.6-25.6 0-14.933333-12.8-25.6-25.6-25.6h-61.866666V426.666667h61.866666c14.933333 0 25.6-12.8 25.6-25.6 0-14.933333-12.8-25.6-25.6-25.6h-61.866666v-25.6c0-34.133333-27.733333-64-64-64h-25.6v-61.866667c0-14.933333-12.8-25.6-25.6-25.6-14.933333 0-25.6 12.8-25.6 25.6v61.866667h-57.6v-61.866667c0-14.933333-12.8-25.6-25.6-25.6-14.933333 0-25.6 12.8-25.6 25.6v61.866667H426.666667v-61.866667c0-14.933333-12.8-25.6-25.6-25.6-14.933333 0-25.6 12.8-25.6 25.6v61.866667h-25.6c-34.133333 0-64 27.733333-64 64v25.6h-64c-17.066667-2.133333-29.866667 8.533333-29.866667 23.466666s12.8 25.6 25.6 25.6h64v57.6h-64c-14.933333 0-25.6 12.8-25.6 25.6 0 14.933333 12.8 25.6 25.6 25.6h64v57.6h-64c-14.933333 0-25.6 12.8-25.6 25.6 0 14.933333 12.8 25.6 25.6 25.6h64v25.6c0 34.133333 27.733333 64 64 64h25.6v61.866667c0 14.933333 12.8 25.6 25.6 25.6 14.933333 0 25.6-12.8 25.6-25.6v-61.866667h57.6v61.866667c0 14.933333 12.8 25.6 25.6 25.6 14.933333 0 25.6-12.8 25.6-25.6v-61.866667h57.6v61.866667c0 14.933333 12.8 25.6 25.6 25.6 14.933333 0 25.6-12.8 25.6-25.6v-61.866667h25.6c34.133333 0 64-27.733333 64-64v-19.2h4.266667z m-40.533334 23.466667c0 12.8-10.666667 23.466667-23.466666 23.466667H345.6c-12.8 0-23.466667-10.666667-23.466667-23.466667V347.733333c0-12.8 10.666667-23.466667 23.466667-23.466666h324.266667c12.8 0 23.466667 10.666667 23.466666 23.466666v324.266667z"  /><path fill="#333333" d="M622.933333 352H392.533333c-23.466667 0-42.666667 19.2-42.666666 42.666667v232.533333c0 23.466667 19.2 42.666667 42.666666 42.666667h232.533334c23.466667 0 42.666667-19.2 42.666666-42.666667V394.666667c-2.133333-23.466667-21.333333-42.666667-44.8-42.666667z m2.133334 275.2l-232.533334 2.133333s-2.133333 0-2.133333-2.133333V394.666667s0-2.133333 2.133333-2.133334h232.533334s2.133333 0 2.133333 2.133334v232.533333h-2.133333z"  /></svg>