<?xml version="1.0" standalone="no"?><!DOCTYPE svg PUBLIC "-//W3C//DTD SVG 1.1//EN" "http://www.w3.org/Graphics/SVG/1.1/DTD/svg11.dtd"><svg class="icon" width="200px" height="200.00px" viewBox="0 0 1024 1024" version="1.1" xmlns="http://www.w3.org/2000/svg"><path fill="#333333" d="M143.84 69.54C100.4 95.34 14.8 193.68 14 219.46v42.68c0 54.12 50.58 101.68 96.5 101.68 55.14 0 101.08-45.7 101.08-100 0 54.24 44.36 100 99.52 100s98-45.7 98-100c0 54.24 47.18 100 102.32 100h1c55.14 0 102.32-45.7 102.32-100 0 54.24 42.94 100 98 100s99.52-45.7 99.52-100c0 54.24 46 100 101.08 100 46 0 96.5-47.56 96.5-101.68v-42.68c-0.8-25.8-86.4-124.14-129.84-150C745.12 64.8 651.52 64 512 64S182.28 66.2 143.84 69.54z m264.64 268.78c-44 76.8-155.8 77.42-199.7 0.5-26.34 46.28-86.34 64.14-112 55.32-7.74 80.3-27.34 474.26 35.46 538.3 160 37.34 604.16 36.24 759.52 0 63.3-64.54 42.64-464 35.5-538.3-25.84 8.88-85.76-9.2-112-55.32-44 77.04-155.7 76.2-199.7-0.48-14.2 24.98-46.1 57.88-103.52 57.88a115.08 115.08 0 0 1-103.5-57.88z m-83.16 107.54c32.94 0 62.18 0 98.44 39.56a873.82 873.82 0 0 1 176.36 0C636.44 446 665.7 446 698.62 446c104.66 0 130.44 155.06 167.74 288.9 34.52 124.3-11.04 127.34-67.9 127.46-84.3-3.14-130.98-64.36-130.98-125.58-78.5 12.86-203.86 17.58-311.1 0 0 61.22-46.68 122.44-130.98 125.58-56.84-0.12-102.4-3.16-67.88-127.46 37.34-134 63.12-288.9 167.76-288.9zM512 541.58s-88.76 81.54-104.7 110.42l58-2.34v50.64c0 3.1 42.68 0.32 46.66 0.32 23.3 1.08 46.62 2 46.62-0.32v-50.56l58 2.34c-16-28.96-104.7-110.48-104.7-110.48z" /></svg>