<?xml version="1.0" standalone="no"?><!DOCTYPE svg PUBLIC "-//W3C//DTD SVG 1.1//EN" "http://www.w3.org/Graphics/SVG/1.1/DTD/svg11.dtd"><svg class="icon" width="200px" height="200.00px" viewBox="0 0 1024 1024" version="1.1" xmlns="http://www.w3.org/2000/svg"><path fill="#333333" d="M942.427421 234.839536a17.254917 17.254917 0 1 0-28.988261 18.715833 475.626037 475.626037 0 0 1 76.013661 258.559181c0 263.229511-214.145024 477.386038-477.386038 477.386038s-477.386038-214.156527-477.386038-477.386038 214.145024-477.386038 477.386038-477.386039a475.683553 475.683553 0 0 1 166.659492 29.908523 17.254917 17.254917 0 0 0 12.055436-32.335714 511.964892 511.964892 0 1 0 251.64571 202.538216z"  /><path fill="#333333" d="M796.059711 128.365195a482.807533 482.807533 0 0 1 34.969965 28.562639 17.254917 17.254917 0 1 0 23.064073-25.663813c-11.963409-10.755565-24.571002-21.050999-37.47768-30.621726a17.256067 17.256067 0 1 0-20.556358 27.7229z"  /><path fill="#333333" d="M580.66083 319.239087m-14.275568 0a14.275568 14.275568 0 1 0 28.551136 0 14.275568 14.275568 0 1 0-28.551136 0Z"  /><path fill="#333333" d="M548.394135 290.699454m-17.991127 0a17.991127 17.991127 0 1 0 35.982254 0 17.991127 17.991127 0 1 0-35.982254 0Z"  /><path fill="#333333" d="M561.703428 372.372728m-17.036355 0a17.036355 17.036355 0 1 0 34.07271 0 17.036355 17.036355 0 1 0-34.07271 0Z"  /><path fill="#333333" d="M503.404815 265.87538m-19.808645 0a19.808645 19.808645 0 1 0 39.61729 0 19.808645 19.808645 0 1 0-39.61729 0Z"  /><path fill="#333333" d="M516.380512 347.790223m-19.808644 0a19.808645 19.808645 0 1 0 39.617289 0 19.808645 19.808645 0 1 0-39.617289 0Z"  /><path fill="#333333" d="M553.202505 437.75736m-19.808644 0a19.808645 19.808645 0 1 0 39.617289 0 19.808645 19.808645 0 1 0-39.617289 0Z"  /><path fill="#333333" d="M445.692869 249.736281m-22.960543 0a22.960543 22.960543 0 1 0 45.921086 0 22.960543 22.960543 0 1 0-45.921086 0Z"  /><path fill="#333333" d="M494.71984 421.629765m-22.960543 0a22.960543 22.960543 0 1 0 45.921086 0 22.960543 22.960543 0 1 0-45.921086 0Z"  /><path fill="#333333" d="M458.415494 331.087463m-22.960542 0a22.960543 22.960543 0 1 0 45.921085 0 22.960543 22.960543 0 1 0-45.921085 0Z"  /><path fill="#333333" d="M374.959212 246.066735m-26.630088 0a26.630089 26.630089 0 1 0 53.260177 0 26.630089 26.630089 0 1 0-53.260177 0Z"  /><path fill="#333333" d="M387.371249 327.049813m-26.630088 0a26.630089 26.630089 0 1 0 53.260177 0 26.630089 26.630089 0 1 0-53.260177 0Z"  /><path fill="#333333" d="M424.791413 417.960219m-26.630089 0a26.630089 26.630089 0 1 0 53.260177 0 26.630089 26.630089 0 1 0-53.260177 0Z"  /><path fill="#333333" d="M292.423193 259.974199m-30.713753 0a30.713752 30.713752 0 1 0 61.427505 0 30.713752 30.713752 0 1 0-61.427505 0Z"  /><path fill="#333333" d="M305.456407 341.658976m-30.713753 0a30.713752 30.713752 0 1 0 61.427505 0 30.713752 30.713752 0 1 0-61.427505 0Z"  /><path fill="#333333" d="M342.370426 432.868467m-30.713753 0a30.713752 30.713752 0 1 0 61.427505 0 30.713752 30.713752 0 1 0-61.427505 0Z"  /><path fill="#333333" d="M215.167177 380.436526m-36.591927 0a36.591927 36.591927 0 1 0 73.183855 0 36.591927 36.591927 0 1 0-73.183855 0Z"  /><path fill="#333333" d="M251.759105 470.39216m-36.591928 0a36.591927 36.591927 0 1 0 73.183855 0 36.591927 36.591927 0 1 0-73.183855 0Z"  /><path fill="#333333" d="M159.295756 539.273789m-43.033763 0a43.033763 43.033763 0 1 0 86.067526 0 43.033763 43.033763 0 1 0-86.067526 0Z"  /><path fill="#333333" d="M312.36772 547.584899m-12.405143 7.064295a14.275568 14.275568 0 1 0 24.810286-14.12859 14.275568 14.275568 0 1 0-24.810286 14.12859Z"  /><path fill="#333333" d="M303.581382 589.672901m-15.632325 8.905676a17.991127 17.991127 0 1 0 31.26465-17.811352 17.991127 17.991127 0 1 0-31.26465 17.811352Z"  /><path fill="#333333" d="M367.935123 537.71828m-14.802732 8.43306a17.036355 17.036355 0 1 0 29.605464-16.86612 17.036355 17.036355 0 1 0-29.605464 16.86612Z"  /><path fill="#333333" d="M304.279262 641.039021m-17.201554 9.79966a19.797141 19.797141 0 1 0 34.403109-19.59932 19.797141 19.797141 0 1 0-34.403109 19.59932Z"  /><path fill="#333333" d="M369.013833 589.25236m-17.211549 9.805354a19.808645 19.808645 0 1 0 34.423099-19.610708 19.808645 19.808645 0 1 0-34.423099 19.610708Z"  /><path fill="#333333" d="M428.974206 512.690401m-17.201554 9.79966a19.797141 19.797141 0 1 0 34.403109-19.59932 19.797141 19.797141 0 1 0-34.403109 19.59932Z"  /><path fill="#333333" d="M318.808541 699.206887m-19.950205 11.365556a22.960543 22.960543 0 1 0 39.90041-22.731111 22.960543 22.960543 0 1 0-39.90041 22.731111Z"  /><path fill="#333333" d="M443.88487 571.555455m-19.950205 11.365556a22.960543 22.960543 0 1 0 39.90041-22.731111 22.960543 22.960543 0 1 0-39.90041 22.731111Z"  /><path fill="#333333" d="M383.180618 647.917647m-19.950205 11.365555a22.960543 22.960543 0 1 0 39.90041-22.731111 22.960543 22.960543 0 1 0-39.90041 22.731111Z"  /><path fill="#333333" d="M350.652528 762.46493m-23.138639 13.181994a26.630089 26.630089 0 1 0 46.277279-26.363989 26.630089 26.630089 0 1 0-46.277279 26.363989Z"  /><path fill="#333333" d="M414.86476 711.587437m-23.13864 13.181995a26.630089 26.630089 0 1 0 46.277279-26.36399 26.630089 26.630089 0 1 0-46.277279 26.36399Z"  /><path fill="#333333" d="M475.332388 634.086405m-23.138639 13.181994a26.630089 26.630089 0 1 0 46.277279-26.363989 26.630089 26.630089 0 1 0-46.277279 26.363989Z"  /><path fill="#333333" d="M403.563087 827.326633m-26.686898 15.203423a30.713752 30.713752 0 1 0 53.373795-30.406847 30.713752 30.713752 0 1 0-53.373795 30.406847Z"  /><path fill="#333333" d="M468.103238 775.520407m-26.686898 15.203424a30.713752 30.713752 0 1 0 53.373795-30.406847 30.713752 30.713752 0 1 0-53.373795 30.406847Z"  /><path fill="#333333" d="M529.086148 698.284502m-26.686898 15.203424a30.713752 30.713752 0 1 0 53.373795-30.406847 30.713752 30.713752 0 1 0-53.373795 30.406847Z"  /><path fill="#333333" d="M546.478 834.799219m-31.79439 18.113143a36.591927 36.591927 0 1 0 63.58878-36.226285 36.591927 36.591927 0 1 0-63.58878 36.226285Z"  /><path fill="#333333" d="M606.533803 758.48478m-31.794389 18.113143a36.591927 36.591927 0 1 0 63.588779-36.226286 36.591927 36.591927 0 1 0-63.588779 36.226286Z"  /><path fill="#333333" d="M712.124334 804.754256m-37.391642 21.301875a43.033763 43.033763 0 1 0 74.783283-42.603751 43.033763 43.033763 0 1 0-74.783283 42.603751Z"  /><path fill="#333333" d="M643.845514 667.482762m-7.096747 12.386607a14.275568 14.275568 0 1 0 14.193495-24.773213 14.275568 14.275568 0 1 0-14.193495 24.773213Z"  /><path fill="#333333" d="M684.653016 653.652003m-8.946571 15.608956a17.991127 17.991127 0 1 0 17.893142-31.217912 17.991127 17.991127 0 1 0-17.893142 31.217912Z"  /><path fill="#333333" d="M607.19464 624.636487m-8.471785 14.780604a17.036355 17.036355 0 1 0 16.94357-29.561207 17.036355 17.036355 0 1 0-16.94357 29.561207Z"  /><path fill="#333333" d="M728.566037 627.00065m-9.85038 17.185821a19.808645 19.808645 0 1 0 19.70076-34.371641 19.808645 19.808645 0 1 0-19.70076 34.371641Z"  /><path fill="#333333" d="M651.063796 597.573277m-9.84466 17.17584a19.797141 19.797141 0 1 0 19.68932-34.35168 19.797141 19.797141 0 1 0-19.68932 34.35168Z"  /><path fill="#333333" d="M554.702792 584.795657m-9.84466 17.17584a19.797141 19.797141 0 1 0 19.68932-34.35168 19.797141 19.797141 0 1 0-19.68932 34.35168Z"  /><path fill="#333333" d="M771.240602 584.909682m-11.417747 19.920382a22.960543 22.960543 0 1 0 22.835493-39.840763 22.960543 22.960543 0 1 0-22.835493 39.840763Z"  /><path fill="#333333" d="M597.781673 542.077839m-11.417746 19.920382a22.960543 22.960543 0 1 0 22.835492-39.840764 22.960543 22.960543 0 1 0-22.835492 39.840764Z"  /><path fill="#333333" d="M694.391192 555.602802m-11.417746 19.920382a22.960543 22.960543 0 1 0 22.835492-39.840763 22.960543 22.960543 0 1 0-22.835492 39.840763Z"  /><path fill="#333333" d="M809.614023 525.388256m-13.242526 23.10405a26.630089 26.630089 0 1 0 26.485053-46.2081 26.630089 26.630089 0 1 0-26.485053 46.2081Z"  /><path fill="#333333" d="M733.205962 495.925579m-13.242526 23.10405a26.630089 26.630089 0 1 0 26.485053-46.208099 26.630089 26.630089 0 1 0-26.485053 46.208099Z"  /><path fill="#333333" d="M635.705057 483.161613m-13.242526 23.10405a26.630089 26.630089 0 1 0 26.485052-46.2081 26.630089 26.630089 0 1 0-26.485052 46.2081Z"  /><path fill="#333333" d="M838.612819 446.924765m-15.273238 26.647003a30.713752 30.713752 0 1 0 30.546475-53.294007 30.713752 30.713752 0 1 0-30.546475 53.294007Z"  /><path fill="#333333" d="M761.290421 417.634214m-15.273238 26.647004a30.713752 30.713752 0 1 0 30.546475-53.294007 30.713752 30.713752 0 1 0-30.546475 53.294007Z"  /><path fill="#333333" d="M663.748473 404.237202m-15.273238 26.647004a30.713752 30.713752 0 1 0 30.546475-53.294007 30.713752 30.713752 0 1 0-30.546475 53.294007Z"  /><path fill="#333333" d="M772.515499 319.978633m-18.196318 31.74686a36.591927 36.591927 0 1 0 36.392636-63.493721 36.591927 36.591927 0 1 0-36.392636 63.493721Z"  /><path fill="#333333" d="M676.248957 306.955559m-18.196318 31.746861a36.591927 36.591927 0 1 0 36.392636-63.493721 36.591927 36.591927 0 1 0-36.392636 63.493721Z"  /><path fill="#333333" d="M662.500778 192.531453m-21.393973 37.325765a43.02226 43.02226 0 1 0 42.787946-74.65153 43.02226 43.02226 0 1 0-42.787946 74.65153Z"  /></svg>