<?xml version="1.0" standalone="no"?><!DOCTYPE svg PUBLIC "-//W3C//DTD SVG 1.1//EN" "http://www.w3.org/Graphics/SVG/1.1/DTD/svg11.dtd"><svg class="icon" width="200px" height="200.00px" viewBox="0 0 1024 1024" version="1.1" xmlns="http://www.w3.org/2000/svg"><path fill="#333333" d="M983.801927 312.831493a511.433962 511.433962 0 0 0-272.382488-272.382489 510.563566 510.563566 0 0 0-398.33379 0A511.433962 511.433962 0 0 0 40.703161 312.831493a510.563566 510.563566 0 0 0 0 398.333789A512.355556 512.355556 0 0 0 512.252544 1023.995546a500.170024 500.170024 0 0 0 199.166895-40.447776 510.205168 510.205168 0 0 0 312.318266-471.549383 508.720377 508.720377 0 0 0-39.935778-199.166894zM194.302309 480.766561a414.308101 414.308101 0 0 1 20.479886-43.007762h4.095977a72.652397 72.652397 0 0 0 72.703597-72.703596 76.799574 76.799574 0 0 0-6.655963-30.71983c9.727946-11.263937 19.967889-22.015878 30.207832-32.767818q16.895906-16.895906 35.327804-32.255821a496.637244 496.637244 0 0 0 26.111855 76.287577 554.288124 554.288124 0 0 0 119.295338 177.151017A558.947298 558.947298 0 0 0 645.371805 629.757734c-2.047989 2.047989-4.095977 4.607974-6.143966 6.655963a721.045598 721.045598 0 0 1-80.895551 72.191599 70.706808 70.706808 0 0 0-41.983767-13.311926 71.679602 71.679602 0 0 0-62.97565 36.863795A560.995286 560.995286 0 0 1 271.61388 651.773611a542.30739 542.30739 0 0 1-103.423426-89.599502 443.952736 443.952736 0 0 1 26.111855-81.407548z m485.373306 195.070917c7.16796-7.679957 14.33592-14.847918 20.991883-22.527875a534.832232 534.832232 0 0 0 143.871202 30.719829 564.579267 564.579267 0 0 1-243.710648 62.975651 743.880671 743.880671 0 0 0 78.847563-71.167605z m287.230406-163.839091a451.939892 451.939892 0 0 1-9.727946 95.231472c-7.679957 6.655963-15.359915 12.799929-23.039872 18.943895a435.607182 435.607182 0 0 1-45.05575 2.047988 502.73001 502.73001 0 0 1-148.991173-22.527875 771.682117 771.682117 0 0 0 71.679602-113.663369h3.071983a72.857196 72.857196 0 0 0 49.151727-126.463298 800.763556 800.763556 0 0 0 25.087861-109.055395 413.898503 413.898503 0 0 1 42.495764 78.335565 454.03908 454.03908 0 0 1 35.327804 177.151017z m-128.511287-316.926241a694.421746 694.421746 0 0 1-29.183838 152.063156 72.754796 72.754796 0 0 0-49.151727 120.319332 708.399268 708.399268 0 0 1-76.287577 117.24735 491.517272 491.517272 0 0 1-147.967179-102.399432 496.227646 496.227646 0 0 1-107.007406-158.719119 487.370095 487.370095 0 0 1-28.671841-91.647491 552.240135 552.240135 0 0 1 93.69548-50.687719 564.01607 564.01607 0 0 1 219.134784-44.031756 599.343874 599.343874 0 0 1 60.927662 3.071983 501.757215 501.757215 0 0 1 59.903668 50.175722l4.607974 4.607974zM660.219723 81.920774a613.065397 613.065397 0 0 0-188.414954 46.591742 623.714938 623.714938 0 0 0-80.383554 40.959772c-1.023994-13.311926-1.535991-26.623852-1.535992-40.447775a502.67881 502.67881 0 0 1 3.071983-55.807691 443.799137 443.799137 0 0 1 119.295338-15.871911 448.66311 448.66311 0 0 1 147.967179 24.575863zM190.718329 190.464172a452.093491 452.093491 0 0 1 142.847207-96.767463c-1.023994 11.775935-1.023994 23.551869-1.023995 35.327804a555.00492 555.00492 0 0 0 5.119972 77.311571 640.406046 640.406046 0 0 0-62.97565 55.295693c-11.263937 11.263937-22.015878 23.039872-32.255821 34.815807a67.942023 67.942023 0 0 0-23.039873-3.583981A72.652397 72.652397 0 0 0 164.094476 412.670938c-7.679957 14.847918-15.359915 30.71983-22.015878 46.591742s-12.799929 31.743824-17.9199 48.127733a531.197052 531.197052 0 0 1-54.271699-97.27946 418.916075 418.916075 0 0 1 24.063867-74.239588 423.319251 423.319251 0 0 1 96.767463-145.407193z m-133.119262 319.486227a605.692638 605.692638 0 0 0 47.615736 66.55963 676.962643 676.962643 0 0 0-12.287932 111.615381 451.530294 451.530294 0 0 1-35.327804-176.63902z m100.863441 287.742403a569.187241 569.187241 0 0 1-8.703952-97.791458 620.438157 620.438157 0 0 1 4.095977-69.631613 642.146836 642.146836 0 0 0 84.479531 68.607619 612.5534 612.5534 0 0 0 193.022929 87.039517 712.648845 712.648845 0 0 1-223.230761 65.023639c-6.143966-5.631969-11.775935-11.263937-17.919901-16.895906-10.75194-11.775935-21.503881-24.063866-31.743823-36.351798z m675.324252 35.839801a443.543138 443.543138 0 0 1-144.383199 97.27946 454.448678 454.448678 0 0 1-177.151017 35.839801 447.229518 447.229518 0 0 1-177.151017-35.839801 458.339856 458.339856 0 0 1-62.97565-32.767818 767.48374 767.48374 0 0 0 191.486937-64.511642l11.775935-5.631969a73.82999 73.82999 0 0 0 40.447775 12.287932 72.498798 72.498798 0 0 0 62.463653-35.839801h7.679958a620.438157 620.438157 0 0 0 339.454116-100.863441 471.037386 471.037386 0 0 1-91.647491 130.047279z" /></svg>