<?xml version="1.0" standalone="no"?><!DOCTYPE svg PUBLIC "-//W3C//DTD SVG 1.1//EN" "http://www.w3.org/Graphics/SVG/1.1/DTD/svg11.dtd"><svg class="icon" width="200px" height="200.00px" viewBox="0 0 1024 1024" version="1.1" xmlns="http://www.w3.org/2000/svg"><path fill="#333333" d="M327.997664 612.795868m-72.565435 0a72.565435 72.565435 0 1 0 145.13087 0 72.565435 72.565435 0 1 0-145.13087 0ZM515.458371 721.644021m-72.565435 0a72.565435 72.565435 0 1 0 145.13087 0 72.565435 72.565435 0 1 0-145.13087 0ZM327.997664 866.774891c19.955495 0 36.282717-16.327223 36.282717-36.282718s-16.327223-36.282717-36.282717-36.282717-36.282717 16.327223-36.282718 36.282717 16.327223 36.282717 36.282718 36.282718z m0 36.282717c-39.910989 0-72.565435-32.654446-72.565435-72.565435s32.654446-72.565435 72.565435-72.565435 72.565435 32.654446 72.565435 72.565435-32.654446 72.565435-72.565435 72.565435z m40.515701-234.023527c21.76963 26.607326 50.191093 42.329837 85.264386 46.56282 6.651832 0.604712 12.698951-3.628272 13.303663-10.280103 1.209424-6.651832-3.628272-12.698951-10.280103-13.908375-29.026174-3.02356-51.400516-15.722511-69.541875-37.492141-4.232984-4.837696-11.489527-6.04712-16.931935-1.814136-4.837696 4.232984-6.04712 12.094239-1.814136 16.931935zM260.269924 104.837824c13.908375-31.445022 14.513087-64.099468 2.418848-96.753914-2.418848-6.651832-9.070679-9.675391-15.722511-7.256543-6.04712 2.418848-9.070679 9.070679-6.651831 15.722511 9.675391 26.607326 9.070679 52.60994-2.418848 78.612554-2.418848 6.04712 0 13.303663 6.047119 15.722511 6.04712 3.02356 13.303663 0 16.327223-6.047119zM382.42174 575.303727c22.374342-12.698951 45.958109-14.513087 71.356011-4.232984 24.188478 10.280103 39.910989 29.630886 45.958109 49.586381 3.02356 9.675391 3.628272 16.327223 3.628272 37.492141 0 6.651832 5.442408 12.094239 12.094239 12.09424s12.094239-5.442408 12.094239-12.09424c0-23.583766-1.209424-32.049734-4.837696-44.748685-7.861255-26.607326-28.421462-51.400516-59.866484-64.704179-32.049734-12.698951-62.890044-10.884815-92.520929 4.837696-5.442408 3.628272-7.861255 10.884815-4.837696 16.931934 3.628272 5.442408 10.884815 7.861255 16.931935 4.837696z m0 293.2853c22.374342 12.698951 45.958109 13.908375 71.356011 4.232983 24.188478-10.280103 39.910989-29.630886 45.958109-49.58638 3.02356-10.280103 3.628272-16.931935 3.628272-38.096853 0-6.651832 5.442408-12.094239 12.094239-12.09424s12.094239 5.442408 12.094239 12.09424c0 23.583766-1.209424 32.049734-4.837696 45.353396-7.861255 26.002614-28.421462 50.795804-59.866484 64.70418-32.049734 12.094239-62.890044 10.280103-92.520929-5.442408-5.442408-3.02356-7.861255-10.884815-4.837696-16.327223 3.628272-6.04712 10.884815-8.465967 16.931935-4.837695z" /></svg>