<?xml version="1.0" standalone="no"?><!DOCTYPE svg PUBLIC "-//W3C//DTD SVG 1.1//EN" "http://www.w3.org/Graphics/SVG/1.1/DTD/svg11.dtd"><svg class="icon" width="200px" height="200.00px" viewBox="0 0 1024 1024" version="1.1" xmlns="http://www.w3.org/2000/svg"><path fill="#333333" d="M784 0a112 112 0 0 1 31.424 219.52L783.392 419.68a112 112 0 1 1-167.12 134.672l-123.04-6.848a80 80 0 1 1-98.064-122.528l10.944-65.744a80 80 0 1 1 94.72 15.808l-10.96 65.744c3.2 3.36 6.112 6.976 8.704 10.848l123.04 6.832a112.288 112.288 0 0 1 66.976-53.984l32-200.128a112.48 112.48 0 0 1-37.808-44.32H341.216a112.288 112.288 0 0 1-70.032 59.584L213.12 577.648a144.08 144.08 0 0 1 73.84 108.96L725.392 784A159.936 159.936 0 0 1 864 704c88.368 0 160 71.632 160 160s-71.632 160-160 160c-83.728 0-152.432-64.32-159.424-146.24l-438.448-97.44a144 144 0 1 1-147.776-218.048l58.064-358.064A112 112 0 1 1 341.216 64h341.568A112 112 0 0 1 784 0z"  /></svg>