<?xml version="1.0" standalone="no"?><!DOCTYPE svg PUBLIC "-//W3C//DTD SVG 1.1//EN" "http://www.w3.org/Graphics/SVG/1.1/DTD/svg11.dtd"><svg class="icon" width="200px" height="200.00px" viewBox="0 0 1024 1024" version="1.1" xmlns="http://www.w3.org/2000/svg"><path fill="#333333" d="M445.866667 665.6c-40.533333 40.533333-93.866667 61.866667-149.333334 61.866667s-108.8-21.333333-149.333333-61.866667-64-96-64-153.6 21.333333-110.933333 61.866667-153.6 93.866667-61.866667 149.333333-61.866667 108.8 21.333333 149.333333 61.866667L661.333333 582.4c36.266667 36.266667 102.4 36.266667 138.666667 0 17.066667-21.333333 27.733333-44.8 27.733333-70.4s-8.533333-49.066667-27.733333-70.4c-21.333333-21.333333-44.8-29.866667-68.266667-29.866667-12.8 0-21.333333 8.533333-21.333333 21.333334s8.533333 21.333333 21.333333 21.333333c17.066667 0 27.733333 4.266667 40.533334 17.066667 12.8 12.8 17.066667 25.6 17.066666 40.533333s-4.266667 29.866667-17.066666 40.533333c-23.466667 21.333333-61.866667 21.333333-81.066667 0L473.6 330.666667C424.533333 281.6 362.666667 256 294.4 256s-130.133333 25.6-179.2 74.666667S42.666667 441.6 42.666667 512s23.466667 132.266667 72.533333 181.333333 108.8 74.666667 179.2 74.666667c64 0 130.133333-25.6 179.2-74.666667 8.533333-8.533333 8.533333-21.333333 0-29.866666-8.533333-6.4-21.333333-6.4-27.733333 2.133333z m-57.6-249.6l215.466666 219.733333c32 36.266667 72.533333 53.333333 121.6 53.333334s93.866667-17.066667 121.6-49.066667c36.266667-32 53.333333-78.933333 53.333334-123.733333s-21.333333-91.733333-53.333334-123.733334c-49.066667-49.066667-125.866667-61.866667-192-36.266666-10.666667 6.4-14.933333 14.933333-10.666666 27.733333 8.533333 12.8 17.066667 17.066667 27.733333 12.8 49.066667-21.333333 108.8-8.533333 147.2 29.866667 27.733333 25.6 40.533333 61.866667 40.533333 96s-17.066667 70.4-40.533333 96c-53.333333 49.066667-142.933333 49.066667-192 0L411.733333 392.533333c-32-36.266667-76.8-53.333333-121.6-53.333333s-89.6 21.333333-121.6 53.333333c-36.266667 32-53.333333 78.933333-53.333333 123.733334s21.333333 91.733333 53.333333 123.733333c49.066667 49.066667 125.866667 61.866667 192 36.266667 12.8-8.533333 17.066667-17.066667 12.8-29.866667-8.533333-12.8-17.066667-17.066667-27.733333-12.8-49.066667 21.333333-108.8 8.533333-147.2-29.866667-27.733333-25.6-40.533333-57.6-40.533333-96 0-32 17.066667-70.4 40.533333-96 51.2-44.8 140.8-44.8 189.866667 4.266667z m520.533333-85.333333c-49.066667-49.066667-108.8-74.666667-179.2-74.666667s-130.133333 25.6-179.2 74.666667c-8.533333 8.533333-8.533333 21.333333 0 29.866666s21.333333 8.533333 27.733333 0c40.533333-40.533333 93.866667-61.866667 149.333334-61.866666s108.8 21.333333 149.333333 61.866666 61.866667 96 61.866667 153.6-21.333333 110.933333-61.866667 153.6-93.866667 61.866667-149.333333 61.866667-108.8-21.333333-149.333334-61.866667L362.666667 441.6c-36.266667-36.266667-102.4-36.266667-138.666667 0-17.066667 21.333333-27.733333 44.8-27.733333 70.4s8.533333 53.333333 27.733333 70.4c21.333333 17.066667 44.8 29.866667 68.266667 29.866667 12.8 0 21.333333-8.533333 21.333333-21.333334s-8.533333-21.333333-21.333333-21.333333c-17.066667 0-27.733333-4.266667-40.533334-17.066667-12.8-12.8-17.066667-25.6-17.066666-40.533333s4.266667-29.866667 17.066666-40.533333c21.333333-21.333333 61.866667-21.333333 81.066667 0l211.2 224c49.066667 49.066667 108.8 74.666667 179.2 74.666666s130.133333-25.6 183.466667-74.666666c49.066667-49.066667 72.533333-110.933333 72.533333-181.333334s-21.333333-134.4-70.4-183.466666z" /></svg>