<?xml version="1.0" standalone="no"?><!DOCTYPE svg PUBLIC "-//W3C//DTD SVG 1.1//EN" "http://www.w3.org/Graphics/SVG/1.1/DTD/svg11.dtd"><svg class="icon" width="200px" height="200.00px" viewBox="0 0 1024 1024" version="1.1" xmlns="http://www.w3.org/2000/svg"><path d="M584 354.8H424.2c-21.8 0-39.5-17.7-39.5-39.5v-68.8c0-21.8 17.7-39.5 39.5-39.5H584c21.8 0 39.5 17.7 39.5 39.5v68.8c0 21.8-17.7 39.5-39.5 39.5z" fill="#D6B0F7" /><path d="M585.8 362.4H422.4c-25 0-45.4-20.4-45.4-45.4v-72.3c0-25 20.4-45.4 45.4-45.4h163.4c25 0 45.4 20.4 45.4 45.4V317c0 25-20.4 45.4-45.4 45.4zM422.4 214.6c-16.6 0-30.1 13.5-30.1 30.1V317c0 16.6 13.5 30.1 30.1 30.1h163.4c16.6 0 30.1-13.5 30.1-30.1v-72.3c0-16.6-13.5-30.1-30.1-30.1H422.4z" fill="#050405" /><path d="M775.5 817.4H240c-36.4 0-65.8-29.5-65.8-65.8V379.8c0-36.4 29.5-65.8 65.8-65.8h535.5c36.4 0 65.8 29.5 65.8 65.8v371.7c0.1 36.4-29.4 65.9-65.8 65.9z" fill="#D6B0F7" /><path d="M778.5 825.1H237c-38.9 0-70.5-31.6-70.5-70.5V376.9c0-38.9 31.6-70.5 70.5-70.5h541.4c38.9 0 70.5 31.6 70.5 70.5v377.6c0.1 38.9-31.5 70.6-70.4 70.6zM237 321.6c-30.5 0-55.3 24.8-55.3 55.3v377.6c0 30.5 24.8 55.3 55.3 55.3h541.4c30.5 0 55.3-24.8 55.3-55.3V376.9c0-30.5-24.8-55.3-55.3-55.3H237z" fill="#050405" /><path d="M542.1 631h-68.7c-17.1 0-31-13.9-31-31v-68.7c0-17.1 13.9-31 31-31h68.7c17.1 0 31 13.9 31 31V600c0 17.1-13.9 31-31 31z m-68.7-115.3c-8.6 0-15.7 7-15.7 15.7V600c0 8.6 7 15.7 15.7 15.7h68.7c8.6 0 15.7-7 15.7-15.7v-68.7c0-8.6-7-15.7-15.7-15.7h-68.7z" fill="#050405" /><path d="M450.1 573.3h-95.2c-4.2 0-7.6-3.4-7.6-7.6s3.4-7.6 7.6-7.6h95.2c4.2 0 7.6 3.4 7.6 7.6s-3.4 7.6-7.6 7.6zM321.9 573.3h-13.7c-4.2 0-7.6-3.4-7.6-7.6s3.4-7.6 7.6-7.6h13.7c4.2 0 7.6 3.4 7.6 7.6s-3.3 7.6-7.6 7.6zM261.5 573.3h-87.4c-4.2 0-7.6-3.4-7.6-7.6s3.4-7.6 7.6-7.6h87.4c4.2 0 7.6 3.4 7.6 7.6s-3.3 7.6-7.6 7.6z" fill="#050405" /><path d="M731.1 573.3H565.4c-4.2 0-7.6-3.4-7.6-7.6s3.4-7.6 7.6-7.6h165.7c4.2 0 7.6 3.4 7.6 7.6s-3.4 7.6-7.6 7.6z" fill="#050405" /><path d="M841.4 573.3h-67.9c-4.2 0-7.6-3.4-7.6-7.6s3.4-7.6 7.6-7.6h67.9c4.2 0 7.6 3.4 7.6 7.6s-3.4 7.6-7.6 7.6z" fill="#050405" /></svg>