<?xml version="1.0" standalone="no"?><!DOCTYPE svg PUBLIC "-//W3C//DTD SVG 1.1//EN" "http://www.w3.org/Graphics/SVG/1.1/DTD/svg11.dtd"><svg class="icon" width="200px" height="200.00px" viewBox="0 0 1024 1024" version="1.1" xmlns="http://www.w3.org/2000/svg"><path fill="#333333" d="M512 426.666667C558.933333 426.666667 597.333333 465.066667 597.333333 512 597.333333 533.333333 589.653333 552.106667 577.28 567.04L712.533333 938.666667 621.653333 938.666667 512 637.013333 402.346667 938.666667 311.466667 938.666667 446.72 567.04C434.346667 552.106667 426.666667 533.333333 426.666667 512 426.666667 465.066667 465.066667 426.666667 512 426.666667M512 341.333333C417.706667 341.333333 341.333333 417.706667 341.333333 512 341.333333 533.333333 345.6 554.666667 353.28 574.293333L315.733333 676.693333C278.613333 631.893333 256 574.72 256 512 256 370.773333 370.773333 256 512 256 653.226667 256 768 370.773333 768 512 768 574.72 745.386667 631.893333 708.266667 676.693333L670.72 574.293333C678.4 554.666667 682.666667 533.333333 682.666667 512 682.666667 417.706667 606.293333 341.333333 512 341.333333M512 170.666667C323.413333 170.666667 170.666667 323.413333 170.666667 512 170.666667 612.693333 213.333333 704 283.306667 765.44L252.586667 850.773333C151.04 772.693333 85.333333 649.813333 85.333333 512 85.333333 276.48 276.48 85.333333 512 85.333333 747.52 85.333333 938.666667 276.48 938.666667 512 938.666667 649.813333 872.96 772.693333 771.413333 850.773333L740.693333 765.44C810.666667 704 853.333333 612.693333 853.333333 512 853.333333 323.413333 700.586667 170.666667 512 170.666667Z" /></svg>