<?xml version="1.0" standalone="no"?><!DOCTYPE svg PUBLIC "-//W3C//DTD SVG 1.1//EN" "http://www.w3.org/Graphics/SVG/1.1/DTD/svg11.dtd"><svg class="icon" width="200px" height="200.00px" viewBox="0 0 1024 1024" version="1.1" xmlns="http://www.w3.org/2000/svg"><path fill="#333333" d="M832 512H320V314.24a96 96 0 1 0-64 0V512H192a96.288 96.288 0 0 0-96 96v160a96.288 96.288 0 0 0 96 96h640a96.288 96.288 0 0 0 96-96v-160a96.288 96.288 0 0 0-96-96zM288 256a32 32 0 1 1 32-32 32 32 0 0 1-32 32z m448 512h-128a32 32 0 0 1 0-64h128a32 32 0 0 1 0 64z m0-96h-128a32 32 0 0 1 0-64h128a32 32 0 0 1 0 64z" /></svg>