<?xml version="1.0" standalone="no"?><!DOCTYPE svg PUBLIC "-//W3C//DTD SVG 1.1//EN" "http://www.w3.org/Graphics/SVG/1.1/DTD/svg11.dtd"><svg class="icon" width="200px" height="200.00px" viewBox="0 0 1024 1024" version="1.1" xmlns="http://www.w3.org/2000/svg"><path fill="#333333" d="M251.946667 0a145.834667 145.834667 0 0 0-82.901334 26.794667l0.469334-0.298667a146.474667 146.474667 0 0 0-57.386667 158.037333l-0.213333-1.024v694.016c0 81.066667 65.450667 146.474667 146.474666 146.474667s146.474667-65.408 146.474667-146.474667v-146.474666h79.573333l160.768 229.674666a145.493333 145.493333 0 0 0 203.392 36.266667 145.408 145.408 0 0 0 36.266667-203.349333l-101.76-145.365334a364.8 364.8 0 0 0 133.76-282.709333c0-201.941333-164.949333-365.482667-366.208-365.482667h-292.266667l-2.005333 0.042667L252.032 0h-0.085333z m98.730666 37.034667h199.978667c181.333333 2.858667 327.082667 152.192 324.224 333.482666a328.874667 328.874667 0 0 1-114.944 244.693334l-19.370667-27.648a292.266667 292.266667 0 0 0-189.952-514.261334H380.288a138.794667 138.794667 0 0 0-7.125333-11.306666l0.298666 0.469333a148.48 148.48 0 0 0-22.698666-25.258667L350.592 37.077333z m44.544 72.533333h155.434667c141.482667 0 256 114.474667 256 256a255.274667 255.274667 0 0 1-86.912 192.213333l-20.864-29.824a219.904 219.904 0 0 0-148.224-382.122666H399.872a147.2 147.2 0 0 0-4.864-37.290667l0.213333 1.024z m0.170667 73.258667h155.264c100.992 2.133333 181.333333 85.333333 179.2 187.008a183.594667 183.594667 0 0 1-53.546667 125.824l-10.410666-14.890667a149.76 149.76 0 0 0-11.818667-14.805333 145.024 145.024 0 0 0 39.552-96.853334 147.328 147.328 0 0 0-143.616-150.016H380.672c6.101333-10.453333 11.178667-22.485333 14.592-35.242666l0.213333-1.024zM148.906667 248.746667c10.368 10.624 22.314667 19.669333 35.498666 26.752l0.768 0.384v601.642666c0 40.533333 32.725333 73.258667 73.258667 73.258667 39.808 0 72.533333-32.725333 73.216-73.941333v-219.008h101.546667l25.898666 36.992H367.914667v182.741333a109.568 109.568 0 0 1-219.008 0V248.789333z m219.008 6.570666h182.741333a109.866667 109.866667 0 0 1 110.208 110.208c0 30.677333-12.373333 58.282667-32.384 78.208a145.408 145.408 0 0 0-35.2-17.621333 72.533333 72.533333 0 0 0 31.317333-59.904c0-41.258667-33.408-73.941333-73.941333-73.941333H404.181333v147.2h66.048a146.773333 146.773333 0 0 0-40.32 36.266666H367.914667V255.317333z m-36.992 15.488v241.962667h78.464a147.626667 147.626667 0 0 0-8.533334 36.266667H294.656V286.933333c13.781333-4.053333 25.813333-9.557333 36.864-16.469333l-0.597333 0.341333z m-109.482667 18.432c9.813333 2.346667 21.034667 3.669333 32.597333 3.669334l4.608-0.085334h-0.213333v292.437334h143.146667c1.792 12.330667 4.992 24.490667 10.026666 36.266666h-116.906666v256a37.546667 37.546667 0 0 1-36.266667 36.992 36.608 36.608 0 0 1-36.992-36.266666V289.237333z m219.008 39.338667h109.525333c20.608 0 36.949333 16.341333 36.949334 36.949333s-15.658667 37.674667-36.266667 37.674667l-110.208-0.725333V328.533333z" /></svg>