<?xml version="1.0" standalone="no"?><!DOCTYPE svg PUBLIC "-//W3C//DTD SVG 1.1//EN" "http://www.w3.org/Graphics/SVG/1.1/DTD/svg11.dtd"><svg class="icon" width="200px" height="200.00px" viewBox="0 0 1024 1024" version="1.1" xmlns="http://www.w3.org/2000/svg"><path fill="#333333" d="M137.429333 156.16c0-3.712 3.029333-6.784 6.784-6.784h501.589334c132.949333 0 240.768 108.288 240.768 241.792v46.933333c0 3.754667-2.986667 6.826667-6.741334 6.826667h-147.029333a6.784 6.784 0 0 1-6.741333-6.826667v-46.933333a80.426667 80.426667 0 0 0-80.256-80.597333H304.725333a6.784 6.784 0 0 0-6.741333 6.826666v550.570667c0 3.754667-3.029333 6.826667-6.741333 6.656a160.896 160.896 0 0 1-153.770667-161.066667z"  /><path fill="#333333" d="M438.485333 471.765333a6.570667 6.570667 0 0 0-6.570666 6.826667 160.853333 160.853333 0 0 0 160.384 154.368h107.008c14.762667 0 26.752 12.032 26.752 26.88v208.128c0 3.754667 2.986667 6.826667 6.741333 6.656a160.896 160.896 0 0 0 153.770667-161.066667v-53.76c0-103.808-83.84-188.032-187.306667-188.032z"  /></svg>