<?xml version="1.0" standalone="no"?><!DOCTYPE svg PUBLIC "-//W3C//DTD SVG 1.1//EN" "http://www.w3.org/Graphics/SVG/1.1/DTD/svg11.dtd"><svg class="icon" width="200px" height="200.00px" viewBox="0 0 1024 1024" version="1.1" xmlns="http://www.w3.org/2000/svg"><path fill="#333333" d="M702.464 937.77H270.165c-66.453 0-120.533-50.943-120.533-113.493V385.75c0-35.669 15.488-70.442 42.581-95.381l176.704-162.88c29.504-27.2 68.48-42.07 109.867-42.07h241.365c61.483 0 111.446 47.083 111.446 105.025v127.616c0 20.01-16.491 36.266-36.779 36.266s-36.779-16.256-36.779-36.266V190.464c0-17.92-17.002-32.512-37.781-32.512H478.763c-22.272 0-43.968 8.192-59.563 22.57l-176.704 162.88c-12.395 11.435-19.307 26.497-19.307 42.369v438.485c0 22.57 21.099 40.896 46.976 40.896h432.299c30.592 0 55.467-21.867 55.467-48.768V634.091c0-20.011 16.49-36.267 36.778-36.267 20.31 0 36.8 16.256 36.8 36.267v182.293c0.086 66.901-57.77 121.387-129.045 121.387z"  /><path fill="#333333" d="M805.397 362.667c-38.186 0-69.269 32-69.269 71.573 0 6.443 0.853 12.587 2.347 18.517L596.907 621.845a80.256 80.256 0 0 0-62.848 4.63l-97.814-80c0.576-3.84 0.96-7.766 0.96-11.798 0-39.466-30.976-71.552-69.269-71.552s-69.27 32-69.27 71.552 30.977 71.574 69.27 71.574c7.51 0 14.613-1.216 21.333-3.52l100.459 82.218c-1.28 5.952-1.941 12.182-1.941 18.518 0 47.424 37.205 85.866 83.093 85.866s83.115-38.442 83.115-85.866a88.833 88.833 0 0 0-5.27-30.187l141.76-169.301a65.742 65.742 0 0 0 14.912 1.706c38.187 0 69.27-32 69.27-71.552-0.107-39.466-31.083-71.466-69.27-71.466z"  /></svg>