<?xml version="1.0" standalone="no"?><!DOCTYPE svg PUBLIC "-//W3C//DTD SVG 1.1//EN" "http://www.w3.org/Graphics/SVG/1.1/DTD/svg11.dtd"><svg class="icon" width="200px" height="200.00px" viewBox="0 0 1024 1024" version="1.1" xmlns="http://www.w3.org/2000/svg"><path fill="#333333" d="M316.330667 762.325333c50.453333 42.026667 114.645333 79.658667 176.917333 110.869334l8.789333 4.373333c65.002667-32.042667 132.906667-71.253333 185.728-115.242667h131.349334c-58.517333 75.072-160.789333 145.962667-305.493334 213.845334l-10.986666 5.162666-0.597334-0.256-0.597333 0.256-10.965333-5.162666c-144.704-67.882667-246.976-138.773333-305.493334-213.845334h131.349334zM193.706667 299.242667c27.306667 0 50.56 4.394667 69.76 13.226666 19.2 8.810667 31.936 19.925333 38.186666 33.301334 6.229333 13.397333 9.344 36.16 9.344 68.266666v15.957334h-97.578666v-29.930667c0-13.973333-1.237333-22.890667-3.733334-26.709333-2.496-3.84-6.656-5.76-12.48-5.76-6.314667 0-11.093333 2.602667-14.357333 7.765333-3.242667 5.141333-4.864 12.970667-4.864 23.466667 0 13.44 1.834667 23.616 5.504 30.421333 3.477333 6.826667 13.376 15.061333 29.696 24.704 46.741333 27.797333 76.181333 50.581333 88.32 68.394667 12.16 17.792 18.24 46.506667 18.24 86.08 0 28.8-3.370667 50.005333-10.112 63.637333-6.741333 13.653333-19.754667 25.088-39.04 34.325333-19.306667 9.237333-41.770667 13.845333-67.413333 13.845334-28.096 0-52.096-5.333333-71.978667-15.978667-19.882667-10.645333-32.896-24.192-39.04-40.661333-6.186667-16.469333-9.258667-39.850667-9.258667-70.144v-26.453334H180.48v49.173334c0 15.146667 1.386667 24.874667 4.117333 29.205333 2.752 4.309333 7.616 6.485333 14.613334 6.485333 6.976 0 12.16-2.752 15.573333-8.234666 3.413333-5.504 5.12-13.653333 5.12-24.469334 0-23.786667-3.242667-39.338667-9.728-46.656-6.656-7.317333-23.04-19.541333-49.152-36.693333-26.133333-17.28-43.434667-29.866667-51.904-37.674667-8.490667-7.829333-15.530667-18.645333-21.098667-32.426666-5.568-13.824-8.362667-31.466667-8.362666-52.906667 0-30.954667 3.968-53.589333 11.861333-67.904 7.893333-14.293333 20.672-25.493333 38.314667-33.557333 17.621333-8.064 38.912-12.096 63.872-12.096z m299.178666 0c21.610667 0 41.045333 3.52 58.261334 10.602666 17.216 7.061333 31.061333 17.664 41.557333 31.808 10.474667 14.144 16.704 29.546667 18.709333 46.165334 2.005333 16.64 2.986667 45.76 2.986667 87.36v69.12c0 40.597333-0.938667 69.333333-2.858667 86.229333a96.618667 96.618667 0 0 1-17.962666 46.293333c-10.069333 13.973333-23.68 24.704-40.810667 32.192-17.130667 7.466667-37.12 11.221333-59.882667 11.221334-21.632 0-41.066667-3.541333-58.282666-10.602667-17.216-7.082667-31.061333-17.685333-41.557334-31.829333a95.637333 95.637333 0 0 1-18.709333-46.165334c-1.834667-15.36-2.837333-41.344-2.986667-77.952v-78.506666c0-40.597333 0.938667-69.333333 2.858667-86.229334 1.92-16.896 7.893333-32.32 17.962667-46.293333s23.68-24.704 40.810666-32.192c17.130667-7.466667 37.12-11.221333 59.904-11.221333z m303.786667 0c30.954667 0 56.490667 5.973333 76.629333 17.962666 20.138667 11.968 33.365333 26.901333 39.68 44.8 6.314667 17.877333 9.472 45.696 9.472 83.477334v38.421333h-105.045333v-70.378667c0-20.458667-1.130667-33.216-3.370667-38.293333-2.261333-5.077333-7.210667-7.616-14.848-7.616-8.661333 0-14.144 3.072-16.469333 9.237333-2.346667 6.144-3.498667 19.456-3.498667 39.914667v187.669333c0 19.626667 1.152 32.426667 3.498667 38.442667 2.325333 5.973333 7.552 8.96 15.722667 8.96 7.808 0 12.928-2.986667 15.338666-8.96 2.410667-5.994667 3.626667-20.053333 3.626667-42.176v-50.666667h105.045333v15.722667c0 41.749333-2.944 71.381333-8.853333 88.832-5.909333 17.493333-18.965333 32.789333-39.168 45.930667-20.224 13.141333-45.141333 19.712-74.752 19.712-30.784 0-56.149333-5.568-76.117333-16.725334-19.968-11.136-33.194667-26.581333-39.68-46.293333-6.485333-19.712-9.728-49.365333-9.728-88.96v-118.037333c0-29.12 1.002667-50.944 2.986666-65.493334 2.005333-14.570667 7.957333-28.586667 17.856-42.069333 9.898667-13.482667 23.616-24.085333 41.173334-31.808 17.557333-7.744 37.717333-11.605333 60.522666-11.605333z m-303.296 68.373333c-5.482667 0-9.685333 2.133333-12.586667 6.357333-2.922667 4.245333-4.394667 16.768-4.394666 37.546667v188.672c0 23.466667 0.96 37.930667 2.88 43.434667 1.92 5.482667 6.357333 8.234667 13.354666 8.234666 7.146667 0 11.733333-3.157333 13.717334-9.493333 2.005333-6.314667 2.986667-21.376 2.986666-45.162667V411.52c0-18.816-1.024-30.826667-3.114666-36.053333-2.069333-5.248-6.357333-7.893333-12.842667-7.893334z m8.682667-323.776l15.829333 11.093333c113.216 79.445333 223.381333 118.762667 330.773333 118.762667h28.864V266.666667c-17.92 0.469333-33.578667 0.682667-46.933333 0.682666-13.354667 0-28.992-1.173333-46.933333-3.562666v-0.149334a557.205333 557.205333 0 0 1-43.328-7.018666c-78.293333-15.786667-157.226667-48.533333-235.925334-97.962667l-2.346666-1.002667V43.84z m0 0V157.653333l-2.346667 1.002667c-78.698667 49.429333-157.610667 82.176-235.904 97.962667-8.874667 1.706667-17.344 3.221333-25.429333 4.522666l-8.96 1.322667-8.96 1.173333a339.2 339.2 0 0 1-46.933334 3.712c-10.666667 0-22.826667-0.149333-36.437333-0.426666l-10.496-0.256V173.696h28.885333c103.402667 0 209.386667-36.48 318.186667-110.101333l12.586667-8.661334 15.808-11.093333z"  /></svg>