<?xml version="1.0" standalone="no"?><!DOCTYPE svg PUBLIC "-//W3C//DTD SVG 1.1//EN" "http://www.w3.org/Graphics/SVG/1.1/DTD/svg11.dtd"><svg class="icon" width="200px" height="200.00px" viewBox="0 0 1024 1024" version="1.1" xmlns="http://www.w3.org/2000/svg"><path fill="#333333" d="M853.333714 0C947.588571 0 1024 76.410286 1024 170.666286v682.667428C1024 947.588571 947.589714 1024 853.333714 1024H170.666286C76.411429 1024 0 947.589714 0 853.333714V170.666286C0 76.411429 76.410286 0 170.666286 0z m102.398857 610.285714H68.266286v243.048c0 55.988571 44.933714 101.481143 100.707428 102.386286l1.692572 0.013714h682.667428c56.553143 0 102.4-45.846857 102.4-102.4L955.732571 610.285714zM337.701714 816C356.328 816 371.428571 831.094857 371.428571 849.714286c0 16.550857-11.931429 30.316571-27.664 33.171428l-6.062857 0.542857H270.297143C251.672 883.428571 236.571429 868.333714 236.571429 849.714286c0-16.550857 11.931429-30.316571 27.664-33.171429l6.062857-0.542857h67.403428z m410.089143 0C766.525714 816 781.714286 831.094857 781.714286 849.714286c0 16.550857-12 30.316571-27.825143 33.171428l-6.098286 0.542857h-67.010286C662.045714 883.428571 646.857143 868.333714 646.857143 849.714286c0-16.550857 12-30.316571 27.825143-33.171429l6.098285-0.542857h67.010286z m-202.125714 0C564.312 816 579.428571 831.094857 579.428571 849.714286c0 16.550857-11.944 30.316571-27.694857 33.171428l-6.068571 0.542857h-67.330286C459.688 883.428571 444.571429 868.333714 444.571429 849.714286c0-16.550857 11.944-30.316571 27.694857-33.171429l6.068571-0.542857h67.330286z m207.458286-132.571429C772.068571 683.428571 787.428571 698.523429 787.428571 717.142857c0 16.550857-12.136 30.316571-28.138285 33.171429l-6.166857 0.542857H273.162286C254.217143 750.857143 238.857143 735.762286 238.857143 717.142857c0-16.550857 12.136-30.316571 28.138286-33.171428l6.166857-0.542858h479.961143z m100.210285-615.162285H170.666286c-56.553143 0-102.4 45.846857-102.4 102.4V542.857143h887.466285V170.666286c0-55.988571-44.932571-101.481143-100.706285-102.386286l-1.692572-0.013714zM513.142857 134.857143c94.045714 0 170.285714 76.24 170.285714 170.285714s-76.24 170.285714-170.285714 170.285714-170.285714-76.24-170.285714-170.285714 76.24-170.285714 170.285714-170.285714z m0 68.114286c-56.427429 0-102.171429 45.744-102.171428 102.171428s45.744 102.171429 102.171428 102.171429 102.171429-45.744 102.171429-102.171429-45.744-102.171429-102.171429-102.171428z" /></svg>