<?xml version="1.0" standalone="no"?><!DOCTYPE svg PUBLIC "-//W3C//DTD SVG 1.1//EN" "http://www.w3.org/Graphics/SVG/1.1/DTD/svg11.dtd"><svg class="icon" width="200px" height="200.00px" viewBox="0 0 1024 1024" version="1.1" xmlns="http://www.w3.org/2000/svg"><path fill="#333333" d="M538.947368 259.233684l256 94.31579v349.776842L538.947368 797.642105l-256-94.315789V353.549474L538.947368 259.233684m0-19.222456L264.982456 341.333333v374.568421L538.947368 816.864561l273.964913-100.962807V341.333333L538.947368 240.011228z"  /><path fill="#333333" d="M741.41193 474.094035l-164.558597 52.637193v132.940351h-75.811929v-132.940351l-164.558597-52.637193v-79.584561L538.947368 459.183158l202.464562-64.673684v79.584561z"  /><path fill="#333333" d="M538.947368 201.745965l310.613334 114.436491v424.510877L538.947368 855.129825l-310.613333-114.436492V316.182456L538.947368 201.745965m0-19.222456L210.369123 303.607018v449.122807L538.947368 874.352281l328.578246-121.083509v-449.122807L538.947368 182.523509z"  /></svg>